0
SECTION
2
HEADER
9
$INSUNITS
70
1
9
$ACADVER
1
AC1014
9
$HANDSEED
5
FFFF
0
ENDSEC
0
SECTION
2
TABLES
0
TABLE
2
VPORT
5
8
100
AcDbSymbolTable
0
ENDTAB
0
TABLE
2
LTYPE
5
5
100
AcDbSymbolTable
0
LTYPE
5
14
100
AcDbSymbolTableRecord
100
AcDbLinetypeTableRecord
2
BYBLOCK
70
0
0
LTYPE
5
15
100
AcDbSymbolTableRecord
100
AcDbLinetypeTableRecord
2
BYLAYER
70
0
0
ENDTAB
0
TABLE
2
LAYER
5
2
100
AcDbSymbolTable
70
2
0
LAYER
5
50
100
AcDbSymbolTableRecord
100
AcDbLayerTableRecord
2
0
70
0
6
CONTINUOUS
0
ENDTAB
0
TABLE
2
STYLE
5
3
100
AcDbSymbolTable
70
1
0
STYLE
5
11
100
AcDbSymbolTableRecord
100
AcDbTextStyleTableRecord
2
STANDARD
70
0
0
ENDTAB
0
TABLE
2
VIEW
5
6
100
AcDbSymbolTable
70
0
0
ENDTAB
0
TABLE
2
UCS
5
7
100
AcDbSymbolTable
70
0
0
ENDTAB
0
TABLE
2
APPID
5
9
100
AcDbSymbolTable
70
2
0
APPID
5
12
100
AcDbSymbolTableRecord
100
AcDbRegAppTableRecord
2
ACAD
70
0
0
ENDTAB
0
TABLE
2
DIMSTYLE
5
A
100
AcDbSymbolTable
70
1
0
ENDTAB
0
TABLE
2
BLOCK_RECORD
5
1
100
AcDbSymbolTable
70
1
0
BLOCK_RECORD
5
1F
100
AcDbSymbolTableRecord
100
AcDbBlockTableRecord
2
*MODEL_SPACE
0
BLOCK_RECORD
5
1B
100
AcDbSymbolTableRecord
100
AcDbBlockTableRecord
2
*PAPER_SPACE
0
ENDTAB
0
ENDSEC
0
SECTION
2
BLOCKS
0
BLOCK
5
20
100
AcDbEntity
100
AcDbBlockBegin
2
*MODEL_SPACE
0
ENDBLK
5
21
100
AcDbEntity
100
AcDbBlockEnd
0
BLOCK
5
1C
100
AcDbEntity
100
AcDbBlockBegin
2
*PAPER_SPACE
0
ENDBLK
5
1D
100
AcDbEntity
100
AcDbBlockEnd
0
ENDSEC
0
SECTION
2
ENTITIES
0
LWPOLYLINE
5
100
100
AcDbEntity
8
0
100
AcDbPolyline
90
4
70
1
43
0.0
10
0.19103020699505391
20
-0.26293052317185778
42
-0.078701706824618009
10
0.10043052317185799
20
-0.30909336779592483
10
0.038627124296868397
20
-0.11888206453689418
42
0.078701706824617218
10
0.073473156536559101
20
-0.10112712429686846
0
LWPOLYLINE
5
101
100
AcDbEntity
8
0
100
AcDbPolyline
90
4
70
1
43
0.0
10
-0.19103020699505349
20
-0.26293052317185739
42
-0.078701706824618231
10
-0.26293052317185794
20
-0.19103020699505377
10
-0.10112712429686845
20
-0.073473156536559142
42
0.078701706824618037
10
-0.073473156536559142
20
-0.10112712429686842
0
LWPOLYLINE
5
102
100
AcDbEntity
8
0
100
AcDbPolyline
90
4
70
1
43
0.0
10
-0.19103020699505394
20
0.26293052317185789
42
-0.078701706824619008
10
-0.10043052317185797
20
0.30909336779592494
10
-0.038627124296868376
20
0.11888206453689414
42
0.07870170682461966
10
-0.073473156536559101
20
0.10112712429686846
0
LWPOLYLINE
5
103
100
AcDbEntity
8
0
100
AcDbPolyline
90
4
70
1
43
0.0
10
0.30909336779592561
20
0.10043052317185797
42
-0.07870170682461812
10
0.32500000000000007
20
-7.7643789883957848e-32
10
0.12499999999999999
20
0
42
0.078701706824617759
10
0.11888206453689418
20
0.038627124296868397
0
LWPOLYLINE
5
104
100
AcDbEntity
8
0
100
AcDbPolyline
90
4
70
1
43
0.0
10
-1.0927391974657052e-17
20
-0.32499999999999957
42
-0.078701706824618009
10
-0.10043052317185788
20
-0.30909336779592494
10
-0.038627124296868424
20
-0.11888206453689421
42
0.078701706824617482
10
-4.9173263885956735e-17
20
-0.12500000000000003
0
CIRCLE
5
105
100
AcDbEntity
8
0
100
AcDbCircle
10
-1.049029629567077e-15
20
1.7920922838437566e-15
30
0
40
0.098425196850393692
0
LWPOLYLINE
5
106
100
AcDbEntity
8
0
100
AcDbPolyline
90
4
70
1
43
0.0
10
-0.30909336779592433
20
-0.10043052317185777
42
-0.078701706824618564
10
-0.32500000000000001
20
-8.7419135797256413e-17
10
-0.12499999999999999
20
0
42
0.078701706824618939
10
-0.11888206453689418
20
-0.038627124296868411
0
LWPOLYLINE
5
107
100
AcDbEntity
8
0
100
AcDbPolyline
90
4
70
1
43
0.0
10
0.30909336779592533
20
-0.10043052317185758
42
-0.078701706824618342
10
0.26293052317185789
20
-0.19103020699505374
10
0.10112712429686842
20
-0.073473156536559142
42
0.078701706824617315
10
0.11888206453689418
20
-0.038627124296868466
0
LWPOLYLINE
5
108
100
AcDbEntity
8
0
100
AcDbPolyline
90
4
70
1
43
0.0
10
0.19103020699505427
20
0.26293052317185839
42
-0.078701706824618453
10
0.26293052317185794
20
0.19103020699505377
10
0.10112712429686845
20
0.073473156536559101
42
0.078701706824618675
10
0.073473156536559212
20
0.10112712429686839
0
LWPOLYLINE
5
109
100
AcDbEntity
8
0
100
AcDbPolyline
90
4
70
1
43
0.0
10
-1.2020131172122756e-16
20
0.32500000000000046
42
-0.078701706824618897
10
0.10043052317185792
20
0.30909336779592489
10
0.038627124296868431
20
0.11888206453689421
42
0.07870170682461948
10
2.7318479936642629e-17
20
0.12500000000000003
0
LWPOLYLINE
5
110
100
AcDbEntity
8
0
100
AcDbPolyline
90
4
70
1
43
0.0
10
-0.30909336779592461
20
0.10043052317185758
42
-0.078701706824619008
10
-0.26293052317185789
20
0.19103020699505374
10
-0.10112712429686839
20
0.073473156536559156
42
0.078701706824619383
10
-0.11888206453689418
20
0.038627124296868466
0
CIRCLE
5
111
100
AcDbEntity
8
0
100
AcDbCircle
10
-1.049029629567077e-15
20
1.7920922838437566e-15
30
0
40
0.35999999999999999
0
LWPOLYLINE
5
112
100
AcDbEntity
8
0
100
AcDbPolyline
90
4
70
1
43
0.0
10
0.17696886176314047
20
-0.26058975798418943
42
-0.06274628516996994
10
0.10680185570990483
20
-0.29634163328314272
10
0.051113251235812722
20
-0.12494973208496557
42
0.041492612393263469
10
0.071042841426202971
20
-0.11479509868496718
0
CIRCLE
5
113
100
AcDbEntity
8
0
100
AcDbCircle
10
-1.049029629567077e-15
20
1.7920922838437566e-15
30
0
40
0.36999999999999994
0
LWPOLYLINE
5
114
100
AcDbEntity
8
0
100
AcDbPolyline
90
4
70
1
43
0.0
10
-0.29634163328314261
20
0.10680185570990448
42
-0.062746285169970828
10
-0.2605897579841896
20
0.17696886176314042
10
-0.1147950986849671
20
0.071042841426203013
42
0.041492612393264981
10
-0.12494973208496531
20
0.05111325123581266
0
LWPOLYLINE
5
115
100
AcDbEntity
8
0
100
AcDbPolyline
90
4
70
1
43
0.0
10
0.0099999999999999187
20
0.31484122982862373
10
0.010000000000000023
20
0.13462912017836298
42
-0.041492612393264815
10
0.032092120909909705
20
0.13113007197246473
10
0.087780725384001737
20
0.30252197317064183
42
0.062746285169970759
0
LWPOLYLINE
5
116
100
AcDbEntity
8
0
100
AcDbPolyline
90
4
70
1
43
0.0
10
0.19314920165063995
20
0.24883405293834057
42
-0.062746285169970273
10
0.24883405293834027
20
0.19314920165063942
10
0.10303939363911797
20
0.087223181313702061
42
0.041492612393264641
10
0.087223181313702325
20
0.10303939363911808
0
LWPOLYLINE
5
117
100
AcDbEntity
8
0
100
AcDbPolyline
90
4
70
1
43
0.0
10
0.29634163328314328
20
-0.10680185570990453
42
-0.062746285169970273
10
0.2605897579841896
20
-0.17696886176314039
10
0.11479509868496732
20
-0.071042841426203138
42
0.041492612393263968
10
0.12494973208496583
20
-0.051113251235812833
0
LWPOLYLINE
5
118
100
AcDbEntity
8
0
100
AcDbPolyline
90
4
70
1
43
0.0
10
-0.30252197317064133
20
-0.087780725384001834
42
-0.062746285169970606
10
-0.31484122982862339
20
-0.010000000000000087
10
-0.13462912017836243
20
-0.010000000000000002
42
0.041492612393264308
10
-0.1311300719724641
20
-0.032092120909909504
0
CIRCLE
5
119
100
AcDbEntity
8
0
100
AcDbCircle
10
-1.049029629567077e-15
20
1.7920922838437566e-15
30
0
40
0.088425196850393697
0
LWPOLYLINE
5
120
100
AcDbEntity
8
0
100
AcDbPolyline
90
4
70
1
43
0.0
10
-0.0099999999999998805
20
-0.31484122982862295
42
-0.062746285169970051
10
-0.087780725384001626
20
-0.30252197317064172
10
-0.032092120909909629
20
-0.13113007197246443
42
0.041492612393263802
10
-0.010000000000000049
20
-0.13462912017836223
0
LWPOLYLINE
5
121
100
AcDbEntity
8
0
100
AcDbPolyline
90
4
70
1
43
0.0
10
0.30252197317064233
20
0.087780725384001987
42
-0.062746285169970273
10
0.31484122982862345
20
0.01
10
0.13462912017836273
20
0.01
42
0.041492612393263968
10
0.13113007197246501
20
0.032092120909909774
0
LWPOLYLINE
5
122
100
AcDbEntity
8
0
100
AcDbPolyline
90
4
70
1
43
0.0
10
-0.17696886176314061
20
0.2605897579841896
42
-0.062746285169970828
10
-0.10680185570990483
20
0.29634163328314289
10
-0.051113251235812708
20
0.12494973208496558
42
0.041492612393264981
10
-0.071042841426202971
20
0.11479509868496718
0
LWPOLYLINE
5
123
100
AcDbEntity
8
0
100
AcDbPolyline
90
4
70
1
43
0.0
10
-0.1931492016506389
20
-0.24883405293833974
42
-0.062746285169970273
10
-0.24883405293834004
20
-0.19314920165063931
10
-0.10303939363911767
20
-0.087223181313701909
42
0.041492612393264142
10
-0.087223181313701742
20
-0.10303939363911736
0
ENDSEC
0
SECTION
2
OBJECTS
0
DICTIONARY
5
C
100
AcDbDictionary
3
ACAD_GROUP
350
D
3
ACAD_MLINESTYLE
350
17
0
DICTIONARY
5
D
100
AcDbDictionary
0
DICTIONARY
5
1A
330
C
100
AcDbDictionary
0
DICTIONARY
5
17
100
AcDbDictionary
0
ENDSEC
0
EOF
