<?xml version="1.0" encoding="UTF-8" standalone="no"?>
<svg
   xmlns:dc="http://purl.org/dc/elements/1.1/"
   xmlns:cc="http://creativecommons.org/ns#"
   xmlns:rdf="http://www.w3.org/1999/02/22-rdf-syntax-ns#"
   xmlns:svg="http://www.w3.org/2000/svg"
   xmlns="http://www.w3.org/2000/svg"
   xmlns:sodipodi="http://sodipodi.sourceforge.net/DTD/sodipodi-0.dtd"
   xmlns:inkscape="http://www.inkscape.org/namespaces/inkscape"
   width="744.094488189"
   height="1052.36220472"
   id="svg2"
   version="1.1"
   inkscape:version="0.48.5 r10040"
   sodipodi:docname="opticalEncoder2.dxf">
  <metadata
     id="metadata110">
    <rdf:RDF>
      <cc:Work
         rdf:about="">
        <dc:format>image/svg+xml</dc:format>
        <dc:type
           rdf:resource="http://purl.org/dc/dcmitype/StillImage" />
        <dc:title></dc:title>
      </cc:Work>
    </rdf:RDF>
  </metadata>
  <sodipodi:namedview
     pagecolor="#ffffff"
     bordercolor="#666666"
     borderopacity="1"
     objecttolerance="10"
     gridtolerance="10"
     guidetolerance="10"
     inkscape:pageopacity="0"
     inkscape:pageshadow="2"
     inkscape:window-width="717"
     inkscape:window-height="480"
     id="namedview108"
     showgrid="false"
     inkscape:zoom="59.468253"
     inkscape:cx="-0.085046561"
     inkscape:cy="1.2518133"
     inkscape:window-x="0"
     inkscape:window-y="0"
     inkscape:window-maximized="0"
     inkscape:current-layer="g20" />
  <desc
     id="desc4">/Users/Wander/Documents/2015-2016/Research/labparts/Spin Coater/opticalEncoder2.dxf - scale = 1.000000</desc>
  <defs
     id="defs6">
    <marker
       id="DistanceX"
       orient="auto"
       refX="0.0"
       refY="0.0"
       style="overflow:visible">
      <path
         d="M 3,-3 L -3,3 M 0,-5 L  0,5"
         style="stroke:#000000; stroke-width:0.5"
         id="path9" />
    </marker>
    <pattern
       height="8"
       id="Hatch"
       patternUnits="userSpaceOnUse"
       width="8"
       x="0"
       y="0">
      <path
         d="M8 4 l-4,4"
         linecap="square"
         stroke="#000000"
         stroke-width="0.25"
         id="path12" />
      <path
         d="M6 2 l-4,4"
         linecap="square"
         stroke="#000000"
         stroke-width="0.25"
         id="path14" />
      <path
         d="M4 0 l-4,4"
         linecap="square"
         stroke="#000000"
         stroke-width="0.25"
         id="path16" />
    </pattern>
    <symbol
       id="*MODEL_SPACE" />
    <symbol
       id="*PAPER_SPACE" />
  </defs>
  <g
     inkscape:groupmode="layer"
     inkscape:label="0"
     id="g20">
    <path
       d="m 4.3720807,1050.1257 a 1.984252,1.984252 0 1 0 -3.96850402,0 1.984252,1.984252 0 0 0 3.96850402,0 z"
       style="fill:none;stroke:#000000;stroke-width:0.01;stroke-miterlimit:4;stroke-dasharray:none"
       id="path22"
       inkscape:connector-curvature="0" />
    <path
       d="m 2.3523957,1048.3899 a 1.73622,1.73622 0 0 0 -0.467278,0.074"
       style="fill:none;stroke:#000000;stroke-width:0.01;stroke-miterlimit:4;stroke-dasharray:none"
       id="path24"
       inkscape:connector-curvature="0" />
    <path
       d="m 2.2600707,1049.6179 -0.374953,-1.154"
       style="fill:none;stroke:#000000;stroke-width:0.01;stroke-miterlimit:4;stroke-dasharray:none"
       id="path26"
       inkscape:connector-curvature="0" />
    <path
       d="m 2.3523957,1048.3899 0,1.2133"
       style="fill:none;stroke:#000000;stroke-width:0.01;stroke-miterlimit:4;stroke-dasharray:none"
       id="path28"
       inkscape:connector-curvature="0" />
    <path
       d="m 1.9859577,1049.7899 -0.981641,-0.7132"
       style="fill:none;stroke:#000000;stroke-width:0.01;stroke-miterlimit:4;stroke-dasharray:none"
       id="path30"
       inkscape:connector-curvature="0" />
    <path
       d="m 1.3388507,1048.7422 0.713204,0.9816"
       style="fill:none;stroke:#000000;stroke-width:0.01;stroke-miterlimit:4;stroke-dasharray:none"
       id="path32"
       inkscape:connector-curvature="0" />
    <path
       d="m 2.3523957,1049.6032 a 0.523684,0.523684 0 0 0 -0.092325,0.015"
       style="fill:none;stroke:#000000;stroke-width:0.01;stroke-miterlimit:4;stroke-dasharray:none"
       id="path34"
       inkscape:connector-curvature="0" />
    <path
       d="m 2.0520547,1049.7238 a 0.523684,0.523684 0 0 0 -0.066097,0.066"
       style="fill:none;stroke:#000000;stroke-width:0.01;stroke-miterlimit:4;stroke-dasharray:none"
       id="path36"
       inkscape:connector-curvature="0" />
    <path
       d="m 1.3388507,1048.7422 a 1.73622,1.73622 0 0 0 -0.334534,0.3345"
       style="fill:none;stroke:#000000;stroke-width:0.01;stroke-miterlimit:4;stroke-dasharray:none"
       id="path38"
       inkscape:connector-curvature="0" />
    <path
       d="m 0.72597968,1049.623 a 1.73622,1.73622 0 0 0 -0.07401,0.4673"
       style="fill:none;stroke:#000000;stroke-width:0.01;stroke-miterlimit:4;stroke-dasharray:none"
       id="path40"
       inkscape:connector-curvature="0" />
    <path
       d="m 0.72597968,1049.623 1.15398802,0.375"
       style="fill:none;stroke:#000000;stroke-width:0.01;stroke-miterlimit:4;stroke-dasharray:none"
       id="path42"
       inkscape:connector-curvature="0" />
    <path
       d="m 1.8653447,1050.0903 -1.21337502,0"
       style="fill:none;stroke:#000000;stroke-width:0.01;stroke-miterlimit:4;stroke-dasharray:none"
       id="path44"
       inkscape:connector-curvature="0" />
    <path
       d="m 1.8799677,1049.998 a 0.523684,0.523684 0 0 0 -0.014623,0.092"
       style="fill:none;stroke:#000000;stroke-width:0.01;stroke-miterlimit:4;stroke-dasharray:none"
       id="path46"
       inkscape:connector-curvature="0" />
    <path
       d="m 4.3720807,1050.1257 a 1.984252,1.984252 0 1 0 -3.96850402,0 1.984252,1.984252 0 0 0 3.96850402,0 z"
       style="fill:none;stroke:#000000;stroke-width:0.01;stroke-miterlimit:4;stroke-dasharray:none"
       id="path50"
       inkscape:connector-curvature="0" />
    <path
       d="m 0.74787868,1050.6958 1.15398802,-0.3749"
       style="fill:none;stroke:#000000;stroke-width:0.01;stroke-miterlimit:4;stroke-dasharray:none"
       id="path52"
       inkscape:connector-curvature="0" />
    <path
       d="m 1.9443037,1050.4042 -0.98164102,0.7132"
       style="fill:none;stroke:#000000;stroke-width:0.01;stroke-miterlimit:4;stroke-dasharray:none"
       id="path54"
       inkscape:connector-curvature="0" />
    <path
       d="m 1.3961827,1051.5509 0.713204,-0.9817"
       style="fill:none;stroke:#000000;stroke-width:0.01;stroke-miterlimit:4;stroke-dasharray:none"
       id="path56"
       inkscape:connector-curvature="0" />
    <path
       d="m 2.1926737,1050.6117 -0.374954,1.154"
       style="fill:none;stroke:#000000;stroke-width:0.01;stroke-miterlimit:4;stroke-dasharray:none"
       id="path58"
       inkscape:connector-curvature="0" />
    <path
       d="m 2.4232617,1051.8616 0,-1.2134"
       style="fill:none;stroke:#000000;stroke-width:0.01;stroke-miterlimit:4;stroke-dasharray:none"
       id="path60"
       inkscape:connector-curvature="0" />
    <path
       d="m 2.5155867,1050.6336 0.374953,1.154"
       style="fill:none;stroke:#000000;stroke-width:0.01;stroke-miterlimit:4;stroke-dasharray:none"
       id="path62"
       inkscape:connector-curvature="0" />
    <path
       d="m 3.4368067,1051.5092 -0.713204,-0.9816"
       style="fill:none;stroke:#000000;stroke-width:0.01;stroke-miterlimit:4;stroke-dasharray:none"
       id="path64"
       inkscape:connector-curvature="0" />
    <path
       d="m 2.7896997,1050.4615 0.981641,0.7132"
       style="fill:none;stroke:#000000;stroke-width:0.01;stroke-miterlimit:4;stroke-dasharray:none"
       id="path66"
       inkscape:connector-curvature="0" />
    <path
       d="m 4.0496777,1050.6284 -1.153988,-0.3749"
       style="fill:none;stroke:#000000;stroke-width:0.01;stroke-miterlimit:4;stroke-dasharray:none"
       id="path68"
       inkscape:connector-curvature="0" />
    <path
       d="m 2.9103127,1050.1612 1.213375,0"
       style="fill:none;stroke:#000000;stroke-width:0.01;stroke-miterlimit:4;stroke-dasharray:none"
       id="path70"
       inkscape:connector-curvature="0" />
    <path
       d="m 4.0277787,1049.5556 -1.153988,0.375"
       style="fill:none;stroke:#000000;stroke-width:0.01;stroke-miterlimit:4;stroke-dasharray:none"
       id="path72"
       inkscape:connector-curvature="0" />
    <path
       d="m 2.8313537,1049.8473 0.981641,-0.7132"
       style="fill:none;stroke:#000000;stroke-width:0.01;stroke-miterlimit:4;stroke-dasharray:none"
       id="path74"
       inkscape:connector-curvature="0" />
    <path
       d="m 3.3794747,1048.7006 -0.713204,0.9816"
       style="fill:none;stroke:#000000;stroke-width:0.01;stroke-miterlimit:4;stroke-dasharray:none"
       id="path76"
       inkscape:connector-curvature="0" />
    <path
       d="m 2.5829837,1049.6398 0.374954,-1.154"
       style="fill:none;stroke:#000000;stroke-width:0.01;stroke-miterlimit:4;stroke-dasharray:none"
       id="path78"
       inkscape:connector-curvature="0" />
    <path
       d="m 2.6662707,1049.6822 a 0.523684,0.523684 0 0 0 -0.083287,-0.042"
       style="fill:none;stroke:#000000;stroke-width:0.01;stroke-miterlimit:4;stroke-dasharray:none"
       id="path80"
       inkscape:connector-curvature="0" />
    <path
       d="m 2.8737907,1049.9306 a 0.523684,0.523684 0 0 0 -0.042437,-0.083"
       style="fill:none;stroke:#000000;stroke-width:0.01;stroke-miterlimit:4;stroke-dasharray:none"
       id="path82"
       inkscape:connector-curvature="0" />
    <path
       d="m 2.8956897,1050.2535 a 0.523684,0.523684 0 0 0 0.014623,-0.092"
       style="fill:none;stroke:#000000;stroke-width:0.01;stroke-miterlimit:4;stroke-dasharray:none"
       id="path84"
       inkscape:connector-curvature="0" />
    <path
       d="m 2.7236027,1050.5276 a 0.523684,0.523684 0 0 0 0.066097,-0.066"
       style="fill:none;stroke:#000000;stroke-width:0.01;stroke-miterlimit:4;stroke-dasharray:none"
       id="path86"
       inkscape:connector-curvature="0" />
    <path
       d="m 2.4232617,1050.6482 a 0.523684,0.523684 0 0 0 0.092325,-0.015"
       style="fill:none;stroke:#000000;stroke-width:0.01;stroke-miterlimit:4;stroke-dasharray:none"
       id="path88"
       inkscape:connector-curvature="0" />
    <path
       d="m 2.1093867,1050.5692 a 0.523684,0.523684 0 0 0 0.083287,0.043"
       style="fill:none;stroke:#000000;stroke-width:0.01;stroke-miterlimit:4;stroke-dasharray:none"
       id="path90"
       inkscape:connector-curvature="0" />
    <path
       d="m 1.9018667,1050.3209 a 0.523684,0.523684 0 0 0 0.042437,0.083"
       style="fill:none;stroke:#000000;stroke-width:0.01;stroke-miterlimit:4;stroke-dasharray:none"
       id="path92"
       inkscape:connector-curvature="0" />
    <path
       d="m 0.74787868,1050.6958 a 1.73622,1.73622 0 0 0 0.214784,0.4216"
       style="fill:none;stroke:#000000;stroke-width:0.01;stroke-miterlimit:4;stroke-dasharray:none"
       id="path94"
       inkscape:connector-curvature="0" />
    <path
       d="m 1.3961827,1051.5509 a 1.73622,1.73622 0 0 0 0.421537,0.2148"
       style="fill:none;stroke:#000000;stroke-width:0.01;stroke-miterlimit:4;stroke-dasharray:none"
       id="path96"
       inkscape:connector-curvature="0" />
    <path
       d="m 2.4232617,1051.8616 a 1.73622,1.73622 0 0 0 0.467278,-0.074"
       style="fill:none;stroke:#000000;stroke-width:0.01;stroke-miterlimit:4;stroke-dasharray:none"
       id="path98"
       inkscape:connector-curvature="0" />
    <path
       d="m 3.4368067,1051.5092 a 1.73622,1.73622 0 0 0 0.334534,-0.3345"
       style="fill:none;stroke:#000000;stroke-width:0.01;stroke-miterlimit:4;stroke-dasharray:none"
       id="path100"
       inkscape:connector-curvature="0" />
    <path
       d="m 4.0496777,1050.6284 a 1.73622,1.73622 0 0 0 0.07401,-0.4672"
       style="fill:none;stroke:#000000;stroke-width:0.01;stroke-miterlimit:4;stroke-dasharray:none"
       id="path102"
       inkscape:connector-curvature="0" />
    <path
       d="m 4.0277787,1049.5556 a 1.73622,1.73622 0 0 0 -0.214784,-0.4215"
       style="fill:none;stroke:#000000;stroke-width:0.01;stroke-miterlimit:4;stroke-dasharray:none"
       id="path104"
       inkscape:connector-curvature="0" />
    <path
       d="m 3.3794747,1048.7006 a 1.73622,1.73622 0 0 0 -0.421537,-0.2148"
       style="fill:none;stroke:#000000;stroke-width:0.01;stroke-miterlimit:4;stroke-dasharray:none"
       id="path106"
       inkscape:connector-curvature="0" />
    <path
       sodipodi:type="arc"
       style="fill:none;stroke:#000000;stroke-width:0.00953653;stroke-linecap:round;stroke-linejoin:round;stroke-miterlimit:4;stroke-opacity:1;stroke-dasharray:none;stroke-dashoffset:0"
       id="path3861"
       sodipodi:cx="-0.02719984"
       sodipodi:cy="1052.6614"
       sodipodi:rx="0.29919824"
       sodipodi:ry="0.29919824"
       d="m 0.2719984,1052.6614 a 0.29919824,0.29919824 0 1 1 -0.59839648,0 0.29919824,0.29919824 0 1 1 0.59839648,0 z"
       transform="matrix(1.0485989,0,0,1.0485989,2.4170494,-53.694605)" />
  </g>
</svg>
