G04 #@! TF.FileFunction,Legend,Top*
%FSLAX46Y46*%
G04 Gerber Fmt 4.6, Leading zero omitted, Abs format (unit mm)*
G04 Created by KiCad (PCBNEW 4.0.2-stable) date Wednesday, June 01, 2016 'PMt' 05:28:17 PM*
%MOMM*%
G01*
G04 APERTURE LIST*
%ADD10C,0.100000*%
%ADD11C,0.150000*%
G04 APERTURE END LIST*
D10*
D11*
X143565880Y-69659500D02*
X134564120Y-69659500D01*
X143565880Y-66159380D02*
X134564120Y-66159380D01*
X134564120Y-66159380D02*
X134564120Y-80660240D01*
X134564120Y-80660240D02*
X143565880Y-80660240D01*
X143565880Y-80660240D02*
X143565880Y-66159380D01*
X151320000Y-82129000D02*
X147360000Y-82129000D01*
X161304000Y-82129000D02*
X153430000Y-82129000D01*
X147360000Y-82129000D02*
X147360000Y-66202000D01*
X167360000Y-66202000D02*
X147360000Y-66202000D01*
X167360000Y-82129000D02*
X167360000Y-66202000D01*
X167360000Y-82129000D02*
X163399500Y-82129000D01*
X138303000Y-108712000D02*
X138303000Y-99568000D01*
X138303000Y-108712000D02*
X160147000Y-108712000D01*
X160147000Y-99568000D02*
X138303000Y-99568000D01*
X160147000Y-108712000D02*
X160147000Y-99568000D01*
X134011000Y-91215000D02*
X140309000Y-91215000D01*
X134017000Y-91075000D02*
X140303000Y-91075000D01*
X134030000Y-90935000D02*
X136714000Y-90935000D01*
X137606000Y-90935000D02*
X140290000Y-90935000D01*
X134049000Y-90795000D02*
X136504000Y-90795000D01*
X137816000Y-90795000D02*
X140271000Y-90795000D01*
X134075000Y-90655000D02*
X136371000Y-90655000D01*
X137949000Y-90655000D02*
X140245000Y-90655000D01*
X134107000Y-90515000D02*
X136280000Y-90515000D01*
X138040000Y-90515000D02*
X140213000Y-90515000D01*
X134146000Y-90375000D02*
X136218000Y-90375000D01*
X138102000Y-90375000D02*
X140174000Y-90375000D01*
X134192000Y-90235000D02*
X136179000Y-90235000D01*
X138141000Y-90235000D02*
X140128000Y-90235000D01*
X134245000Y-90095000D02*
X136162000Y-90095000D01*
X138158000Y-90095000D02*
X140075000Y-90095000D01*
X134307000Y-89955000D02*
X136164000Y-89955000D01*
X138156000Y-89955000D02*
X140013000Y-89955000D01*
X134377000Y-89815000D02*
X136186000Y-89815000D01*
X138134000Y-89815000D02*
X139943000Y-89815000D01*
X134456000Y-89675000D02*
X136229000Y-89675000D01*
X138091000Y-89675000D02*
X139864000Y-89675000D01*
X134544000Y-89535000D02*
X136297000Y-89535000D01*
X138023000Y-89535000D02*
X139776000Y-89535000D01*
X134644000Y-89395000D02*
X136396000Y-89395000D01*
X137924000Y-89395000D02*
X139676000Y-89395000D01*
X134756000Y-89255000D02*
X136541000Y-89255000D01*
X137779000Y-89255000D02*
X139564000Y-89255000D01*
X134881000Y-89115000D02*
X136780000Y-89115000D01*
X137540000Y-89115000D02*
X139439000Y-89115000D01*
X135024000Y-88975000D02*
X139296000Y-88975000D01*
X135186000Y-88835000D02*
X139134000Y-88835000D01*
X135374000Y-88695000D02*
X138946000Y-88695000D01*
X135597000Y-88555000D02*
X138723000Y-88555000D01*
X135873000Y-88415000D02*
X138447000Y-88415000D01*
X136248000Y-88275000D02*
X138072000Y-88275000D01*
X138160000Y-90040000D02*
G75*
G03X138160000Y-90040000I-1000000J0D01*
G01*
X140347500Y-91290000D02*
G75*
G03X140347500Y-91290000I-3187500J0D01*
G01*
X147346000Y-91215000D02*
X153644000Y-91215000D01*
X147352000Y-91075000D02*
X153638000Y-91075000D01*
X147365000Y-90935000D02*
X150049000Y-90935000D01*
X150941000Y-90935000D02*
X153625000Y-90935000D01*
X147384000Y-90795000D02*
X149839000Y-90795000D01*
X151151000Y-90795000D02*
X153606000Y-90795000D01*
X147410000Y-90655000D02*
X149706000Y-90655000D01*
X151284000Y-90655000D02*
X153580000Y-90655000D01*
X147442000Y-90515000D02*
X149615000Y-90515000D01*
X151375000Y-90515000D02*
X153548000Y-90515000D01*
X147481000Y-90375000D02*
X149553000Y-90375000D01*
X151437000Y-90375000D02*
X153509000Y-90375000D01*
X147527000Y-90235000D02*
X149514000Y-90235000D01*
X151476000Y-90235000D02*
X153463000Y-90235000D01*
X147580000Y-90095000D02*
X149497000Y-90095000D01*
X151493000Y-90095000D02*
X153410000Y-90095000D01*
X147642000Y-89955000D02*
X149499000Y-89955000D01*
X151491000Y-89955000D02*
X153348000Y-89955000D01*
X147712000Y-89815000D02*
X149521000Y-89815000D01*
X151469000Y-89815000D02*
X153278000Y-89815000D01*
X147791000Y-89675000D02*
X149564000Y-89675000D01*
X151426000Y-89675000D02*
X153199000Y-89675000D01*
X147879000Y-89535000D02*
X149632000Y-89535000D01*
X151358000Y-89535000D02*
X153111000Y-89535000D01*
X147979000Y-89395000D02*
X149731000Y-89395000D01*
X151259000Y-89395000D02*
X153011000Y-89395000D01*
X148091000Y-89255000D02*
X149876000Y-89255000D01*
X151114000Y-89255000D02*
X152899000Y-89255000D01*
X148216000Y-89115000D02*
X150115000Y-89115000D01*
X150875000Y-89115000D02*
X152774000Y-89115000D01*
X148359000Y-88975000D02*
X152631000Y-88975000D01*
X148521000Y-88835000D02*
X152469000Y-88835000D01*
X148709000Y-88695000D02*
X152281000Y-88695000D01*
X148932000Y-88555000D02*
X152058000Y-88555000D01*
X149208000Y-88415000D02*
X151782000Y-88415000D01*
X149583000Y-88275000D02*
X151407000Y-88275000D01*
X151495000Y-90040000D02*
G75*
G03X151495000Y-90040000I-1000000J0D01*
G01*
X153682500Y-91290000D02*
G75*
G03X153682500Y-91290000I-3187500J0D01*
G01*
X161316000Y-91075000D02*
X167614000Y-91075000D01*
X161322000Y-90935000D02*
X167608000Y-90935000D01*
X161335000Y-90795000D02*
X164019000Y-90795000D01*
X164911000Y-90795000D02*
X167595000Y-90795000D01*
X161354000Y-90655000D02*
X163809000Y-90655000D01*
X165121000Y-90655000D02*
X167576000Y-90655000D01*
X161380000Y-90515000D02*
X163676000Y-90515000D01*
X165254000Y-90515000D02*
X167550000Y-90515000D01*
X161412000Y-90375000D02*
X163585000Y-90375000D01*
X165345000Y-90375000D02*
X167518000Y-90375000D01*
X161451000Y-90235000D02*
X163523000Y-90235000D01*
X165407000Y-90235000D02*
X167479000Y-90235000D01*
X161497000Y-90095000D02*
X163484000Y-90095000D01*
X165446000Y-90095000D02*
X167433000Y-90095000D01*
X161550000Y-89955000D02*
X163467000Y-89955000D01*
X165463000Y-89955000D02*
X167380000Y-89955000D01*
X161612000Y-89815000D02*
X163469000Y-89815000D01*
X165461000Y-89815000D02*
X167318000Y-89815000D01*
X161682000Y-89675000D02*
X163491000Y-89675000D01*
X165439000Y-89675000D02*
X167248000Y-89675000D01*
X161761000Y-89535000D02*
X163534000Y-89535000D01*
X165396000Y-89535000D02*
X167169000Y-89535000D01*
X161849000Y-89395000D02*
X163602000Y-89395000D01*
X165328000Y-89395000D02*
X167081000Y-89395000D01*
X161949000Y-89255000D02*
X163701000Y-89255000D01*
X165229000Y-89255000D02*
X166981000Y-89255000D01*
X162061000Y-89115000D02*
X163846000Y-89115000D01*
X165084000Y-89115000D02*
X166869000Y-89115000D01*
X162186000Y-88975000D02*
X164085000Y-88975000D01*
X164845000Y-88975000D02*
X166744000Y-88975000D01*
X162329000Y-88835000D02*
X166601000Y-88835000D01*
X162491000Y-88695000D02*
X166439000Y-88695000D01*
X162679000Y-88555000D02*
X166251000Y-88555000D01*
X162902000Y-88415000D02*
X166028000Y-88415000D01*
X163178000Y-88275000D02*
X165752000Y-88275000D01*
X163553000Y-88135000D02*
X165377000Y-88135000D01*
X165465000Y-89900000D02*
G75*
G03X165465000Y-89900000I-1000000J0D01*
G01*
X167652500Y-91150000D02*
G75*
G03X167652500Y-91150000I-3187500J0D01*
G01*
X137850715Y-84116183D02*
X137803096Y-84163802D01*
X137660239Y-84211421D01*
X137565001Y-84211421D01*
X137422143Y-84163802D01*
X137326905Y-84068564D01*
X137279286Y-83973326D01*
X137231667Y-83782850D01*
X137231667Y-83639992D01*
X137279286Y-83449516D01*
X137326905Y-83354278D01*
X137422143Y-83259040D01*
X137565001Y-83211421D01*
X137660239Y-83211421D01*
X137803096Y-83259040D01*
X137850715Y-83306659D01*
X138469762Y-83211421D02*
X138660239Y-83211421D01*
X138755477Y-83259040D01*
X138850715Y-83354278D01*
X138898334Y-83544754D01*
X138898334Y-83878088D01*
X138850715Y-84068564D01*
X138755477Y-84163802D01*
X138660239Y-84211421D01*
X138469762Y-84211421D01*
X138374524Y-84163802D01*
X138279286Y-84068564D01*
X138231667Y-83878088D01*
X138231667Y-83544754D01*
X138279286Y-83354278D01*
X138374524Y-83259040D01*
X138469762Y-83211421D01*
X139326905Y-84211421D02*
X139326905Y-83211421D01*
X139898334Y-84211421D01*
X139898334Y-83211421D01*
X140898334Y-84211421D02*
X140326905Y-84211421D01*
X140612619Y-84211421D02*
X140612619Y-83211421D01*
X140517381Y-83354278D01*
X140422143Y-83449516D01*
X140326905Y-83497135D01*
X149121905Y-83942381D02*
X149121905Y-82942381D01*
X149502858Y-82942381D01*
X149598096Y-82990000D01*
X149645715Y-83037619D01*
X149693334Y-83132857D01*
X149693334Y-83275714D01*
X149645715Y-83370952D01*
X149598096Y-83418571D01*
X149502858Y-83466190D01*
X149121905Y-83466190D01*
X150645715Y-83942381D02*
X150074286Y-83942381D01*
X150360000Y-83942381D02*
X150360000Y-82942381D01*
X150264762Y-83085238D01*
X150169524Y-83180476D01*
X150074286Y-83228095D01*
X148463095Y-104354381D02*
X148463095Y-105163905D01*
X148510714Y-105259143D01*
X148558333Y-105306762D01*
X148653571Y-105354381D01*
X148844048Y-105354381D01*
X148939286Y-105306762D01*
X148986905Y-105259143D01*
X149034524Y-105163905D01*
X149034524Y-104354381D01*
X150034524Y-105354381D02*
X149463095Y-105354381D01*
X149748809Y-105354381D02*
X149748809Y-104354381D01*
X149653571Y-104497238D01*
X149558333Y-104592476D01*
X149463095Y-104640095D01*
X174261905Y-67451381D02*
X174261905Y-66451381D01*
X174642858Y-66451381D01*
X174738096Y-66499000D01*
X174785715Y-66546619D01*
X174833334Y-66641857D01*
X174833334Y-66784714D01*
X174785715Y-66879952D01*
X174738096Y-66927571D01*
X174642858Y-66975190D01*
X174261905Y-66975190D01*
X175214286Y-66546619D02*
X175261905Y-66499000D01*
X175357143Y-66451381D01*
X175595239Y-66451381D01*
X175690477Y-66499000D01*
X175738096Y-66546619D01*
X175785715Y-66641857D01*
X175785715Y-66737095D01*
X175738096Y-66879952D01*
X175166667Y-67451381D01*
X175785715Y-67451381D01*
X124261905Y-92451381D02*
X124261905Y-91451381D01*
X124642858Y-91451381D01*
X124738096Y-91499000D01*
X124785715Y-91546619D01*
X124833334Y-91641857D01*
X124833334Y-91784714D01*
X124785715Y-91879952D01*
X124738096Y-91927571D01*
X124642858Y-91975190D01*
X124261905Y-91975190D01*
X125166667Y-91451381D02*
X125785715Y-91451381D01*
X125452381Y-91832333D01*
X125595239Y-91832333D01*
X125690477Y-91879952D01*
X125738096Y-91927571D01*
X125785715Y-92022810D01*
X125785715Y-92260905D01*
X125738096Y-92356143D01*
X125690477Y-92403762D01*
X125595239Y-92451381D01*
X125309524Y-92451381D01*
X125214286Y-92403762D01*
X125166667Y-92356143D01*
X124261905Y-67451381D02*
X124261905Y-66451381D01*
X124642858Y-66451381D01*
X124738096Y-66499000D01*
X124785715Y-66546619D01*
X124833334Y-66641857D01*
X124833334Y-66784714D01*
X124785715Y-66879952D01*
X124738096Y-66927571D01*
X124642858Y-66975190D01*
X124261905Y-66975190D01*
X125690477Y-66784714D02*
X125690477Y-67451381D01*
X125452381Y-66403762D02*
X125214286Y-67118048D01*
X125833334Y-67118048D01*
X174261905Y-92451381D02*
X174261905Y-91451381D01*
X174642858Y-91451381D01*
X174738096Y-91499000D01*
X174785715Y-91546619D01*
X174833334Y-91641857D01*
X174833334Y-91784714D01*
X174785715Y-91879952D01*
X174738096Y-91927571D01*
X174642858Y-91975190D01*
X174261905Y-91975190D01*
X175738096Y-91451381D02*
X175261905Y-91451381D01*
X175214286Y-91927571D01*
X175261905Y-91879952D01*
X175357143Y-91832333D01*
X175595239Y-91832333D01*
X175690477Y-91879952D01*
X175738096Y-91927571D01*
X175785715Y-92022810D01*
X175785715Y-92260905D01*
X175738096Y-92356143D01*
X175690477Y-92403762D01*
X175595239Y-92451381D01*
X175357143Y-92451381D01*
X175261905Y-92403762D01*
X175214286Y-92356143D01*
X133117143Y-91456666D02*
X133164762Y-91504285D01*
X133212381Y-91647142D01*
X133212381Y-91742380D01*
X133164762Y-91885238D01*
X133069524Y-91980476D01*
X132974286Y-92028095D01*
X132783810Y-92075714D01*
X132640952Y-92075714D01*
X132450476Y-92028095D01*
X132355238Y-91980476D01*
X132260000Y-91885238D01*
X132212381Y-91742380D01*
X132212381Y-91647142D01*
X132260000Y-91504285D01*
X132307619Y-91456666D01*
X133212381Y-90504285D02*
X133212381Y-91075714D01*
X133212381Y-90790000D02*
X132212381Y-90790000D01*
X132355238Y-90885238D01*
X132450476Y-90980476D01*
X132498095Y-91075714D01*
X146452143Y-91456666D02*
X146499762Y-91504285D01*
X146547381Y-91647142D01*
X146547381Y-91742380D01*
X146499762Y-91885238D01*
X146404524Y-91980476D01*
X146309286Y-92028095D01*
X146118810Y-92075714D01*
X145975952Y-92075714D01*
X145785476Y-92028095D01*
X145690238Y-91980476D01*
X145595000Y-91885238D01*
X145547381Y-91742380D01*
X145547381Y-91647142D01*
X145595000Y-91504285D01*
X145642619Y-91456666D01*
X145642619Y-91075714D02*
X145595000Y-91028095D01*
X145547381Y-90932857D01*
X145547381Y-90694761D01*
X145595000Y-90599523D01*
X145642619Y-90551904D01*
X145737857Y-90504285D01*
X145833095Y-90504285D01*
X145975952Y-90551904D01*
X146547381Y-91123333D01*
X146547381Y-90504285D01*
X160422143Y-91316666D02*
X160469762Y-91364285D01*
X160517381Y-91507142D01*
X160517381Y-91602380D01*
X160469762Y-91745238D01*
X160374524Y-91840476D01*
X160279286Y-91888095D01*
X160088810Y-91935714D01*
X159945952Y-91935714D01*
X159755476Y-91888095D01*
X159660238Y-91840476D01*
X159565000Y-91745238D01*
X159517381Y-91602380D01*
X159517381Y-91507142D01*
X159565000Y-91364285D01*
X159612619Y-91316666D01*
X159517381Y-90983333D02*
X159517381Y-90364285D01*
X159898333Y-90697619D01*
X159898333Y-90554761D01*
X159945952Y-90459523D01*
X159993571Y-90411904D01*
X160088810Y-90364285D01*
X160326905Y-90364285D01*
X160422143Y-90411904D01*
X160469762Y-90459523D01*
X160517381Y-90554761D01*
X160517381Y-90840476D01*
X160469762Y-90935714D01*
X160422143Y-90983333D01*
M02*
