M48
;DRILL file {KiCad 4.0.2-stable} date Wednesday, June 01, 2016 'PMt' 05:28:12 PM
;FORMAT={-:-/ absolute / inch / decimal}
FMAT,2
INCH,TZ
T1C0.030
T2C0.031
T3C0.051
T4C0.118
T5C0.256
%
G90
G05
M72
T1
X5.525Y-4.05
X5.625Y-4.05
X5.725Y-4.05
X5.825Y-4.05
X6.025Y-4.05
X6.125Y-4.05
X6.225Y-4.05
T2
X5.4Y-3.5449
X5.4Y-3.6433
X5.925Y-3.5449
X5.925Y-3.6433
X6.475Y-3.5394
X6.475Y-3.6378
T3
X5.9Y-3.1
X5.9984Y-3.1984
X6.0969Y-2.7063
X6.1953Y-3.1
X6.2937Y-2.7063
X6.3921Y-3.1984
X6.4906Y-3.1
T4
X5.29Y-3.026
X5.475Y-2.9079
X5.475Y-3.1441
T5
X4.9213Y-2.9528
X4.9213Y-3.937
X6.8898Y-2.9528
X6.8898Y-3.937
T0
M30
