G04 #@! TF.FileFunction,Copper,L2,Bot,Signal*
%FSLAX46Y46*%
G04 Gerber Fmt 4.6, Leading zero omitted, Abs format (unit mm)*
G04 Created by KiCad (PCBNEW 4.0.2-stable) date Wednesday, June 01, 2016 'PMt' 05:28:17 PM*
%MOMM*%
G01*
G04 APERTURE LIST*
%ADD10C,0.100000*%
%ADD11R,3.500120X3.500120*%
%ADD12C,2.300000*%
%ADD13C,2.000000*%
%ADD14C,1.524000*%
%ADD15C,1.300000*%
%ADD16R,1.300000X1.300000*%
%ADD17C,0.508000*%
%ADD18C,0.254000*%
G04 APERTURE END LIST*
D10*
D11*
X139065000Y-79860140D03*
X139065000Y-73860660D03*
X134366000Y-76860400D03*
D12*
X162360000Y-81240000D03*
D13*
X154860000Y-68740000D03*
D12*
X164860000Y-78740000D03*
X157360000Y-78740000D03*
X149860000Y-78740000D03*
X152360000Y-81240000D03*
D13*
X159860000Y-68740000D03*
D14*
X158115000Y-102870000D03*
X155575000Y-102870000D03*
X153035000Y-102870000D03*
X147955000Y-102870000D03*
X145415000Y-102870000D03*
X142875000Y-102870000D03*
X140335000Y-102870000D03*
D15*
X137160000Y-90040000D03*
D16*
X137160000Y-92540000D03*
D15*
X150495000Y-90040000D03*
D16*
X150495000Y-92540000D03*
D15*
X164465000Y-89900000D03*
D16*
X164465000Y-92400000D03*
D17*
X137160000Y-90040000D02*
X142875000Y-95755000D01*
X142875000Y-95755000D02*
X142875000Y-102870000D01*
X164465000Y-92400000D02*
X164465000Y-96520000D01*
X164465000Y-96520000D02*
X158115000Y-102870000D01*
X150495000Y-90040000D02*
X162105000Y-90040000D01*
X162105000Y-90040000D02*
X164465000Y-92400000D01*
X150495000Y-90040000D02*
X137160000Y-90040000D01*
X149860000Y-78740000D02*
X149860000Y-89405000D01*
X149860000Y-89405000D02*
X150495000Y-90040000D01*
X139065000Y-73860660D02*
X144980660Y-73860660D01*
X144980660Y-73860660D02*
X149860000Y-78740000D01*
D18*
G36*
X153474722Y-67812637D02*
X153225284Y-68413352D01*
X153224716Y-69063795D01*
X153473106Y-69664943D01*
X153932637Y-70125278D01*
X154533352Y-70374716D01*
X155183795Y-70375284D01*
X155784943Y-70126894D01*
X156245278Y-69667363D01*
X156494716Y-69066648D01*
X156495284Y-68416205D01*
X156246894Y-67815057D01*
X155869497Y-67437000D01*
X158851016Y-67437000D01*
X158474722Y-67812637D01*
X158225284Y-68413352D01*
X158224716Y-69063795D01*
X158473106Y-69664943D01*
X158932637Y-70125278D01*
X159533352Y-70374716D01*
X160183795Y-70375284D01*
X160784943Y-70126894D01*
X161245278Y-69667363D01*
X161494716Y-69066648D01*
X161495284Y-68416205D01*
X161246894Y-67815057D01*
X160869497Y-67437000D01*
X181483000Y-67437000D01*
X181483000Y-107188000D01*
X118872000Y-107188000D01*
X118872000Y-100769384D01*
X121114327Y-100769384D01*
X121704537Y-102197801D01*
X122796451Y-103291623D01*
X124223835Y-103884324D01*
X125769384Y-103885673D01*
X127197801Y-103295463D01*
X127346863Y-103146661D01*
X138937758Y-103146661D01*
X139149990Y-103660303D01*
X139542630Y-104053629D01*
X140055900Y-104266757D01*
X140611661Y-104267242D01*
X141125303Y-104055010D01*
X141330457Y-103850213D01*
X142074392Y-103850213D01*
X142143857Y-104092397D01*
X142667302Y-104279144D01*
X143222368Y-104251362D01*
X143606143Y-104092397D01*
X143675608Y-103850213D01*
X142875000Y-103049605D01*
X142074392Y-103850213D01*
X141330457Y-103850213D01*
X141518629Y-103662370D01*
X141598395Y-103470273D01*
X141652603Y-103601143D01*
X141894787Y-103670608D01*
X142695395Y-102870000D01*
X143054605Y-102870000D01*
X143855213Y-103670608D01*
X144097397Y-103601143D01*
X144147509Y-103460682D01*
X144229990Y-103660303D01*
X144622630Y-104053629D01*
X145135900Y-104266757D01*
X145691661Y-104267242D01*
X146205303Y-104055010D01*
X146598629Y-103662370D01*
X146684949Y-103454488D01*
X146769990Y-103660303D01*
X147162630Y-104053629D01*
X147675900Y-104266757D01*
X148231661Y-104267242D01*
X148745303Y-104055010D01*
X149138629Y-103662370D01*
X149351757Y-103149100D01*
X149351759Y-103146661D01*
X151637758Y-103146661D01*
X151849990Y-103660303D01*
X152242630Y-104053629D01*
X152755900Y-104266757D01*
X153311661Y-104267242D01*
X153825303Y-104055010D01*
X154218629Y-103662370D01*
X154304949Y-103454488D01*
X154389990Y-103660303D01*
X154782630Y-104053629D01*
X155295900Y-104266757D01*
X155851661Y-104267242D01*
X156365303Y-104055010D01*
X156570457Y-103850213D01*
X157314392Y-103850213D01*
X157383857Y-104092397D01*
X157907302Y-104279144D01*
X158462368Y-104251362D01*
X158846143Y-104092397D01*
X158915608Y-103850213D01*
X158115000Y-103049605D01*
X157314392Y-103850213D01*
X156570457Y-103850213D01*
X156758629Y-103662370D01*
X156838395Y-103470273D01*
X156892603Y-103601143D01*
X157134787Y-103670608D01*
X157935395Y-102870000D01*
X158294605Y-102870000D01*
X159095213Y-103670608D01*
X159337397Y-103601143D01*
X159524144Y-103077698D01*
X159496362Y-102522632D01*
X159337397Y-102138857D01*
X159095213Y-102069392D01*
X158294605Y-102870000D01*
X157935395Y-102870000D01*
X157134787Y-102069392D01*
X156892603Y-102138857D01*
X156842491Y-102279318D01*
X156760010Y-102079697D01*
X156570432Y-101889787D01*
X157314392Y-101889787D01*
X158115000Y-102690395D01*
X158915608Y-101889787D01*
X158846143Y-101647603D01*
X158322698Y-101460856D01*
X157767632Y-101488638D01*
X157383857Y-101647603D01*
X157314392Y-101889787D01*
X156570432Y-101889787D01*
X156367370Y-101686371D01*
X155854100Y-101473243D01*
X155298339Y-101472758D01*
X154784697Y-101684990D01*
X154391371Y-102077630D01*
X154305051Y-102285512D01*
X154220010Y-102079697D01*
X153827370Y-101686371D01*
X153314100Y-101473243D01*
X152758339Y-101472758D01*
X152244697Y-101684990D01*
X151851371Y-102077630D01*
X151638243Y-102590900D01*
X151637758Y-103146661D01*
X149351759Y-103146661D01*
X149352242Y-102593339D01*
X149140010Y-102079697D01*
X148747370Y-101686371D01*
X148234100Y-101473243D01*
X147678339Y-101472758D01*
X147164697Y-101684990D01*
X146771371Y-102077630D01*
X146685051Y-102285512D01*
X146600010Y-102079697D01*
X146207370Y-101686371D01*
X145694100Y-101473243D01*
X145138339Y-101472758D01*
X144624697Y-101684990D01*
X144231371Y-102077630D01*
X144151605Y-102269727D01*
X144097397Y-102138857D01*
X143855213Y-102069392D01*
X143054605Y-102870000D01*
X142695395Y-102870000D01*
X141894787Y-102069392D01*
X141652603Y-102138857D01*
X141602491Y-102279318D01*
X141520010Y-102079697D01*
X141330432Y-101889787D01*
X142074392Y-101889787D01*
X142875000Y-102690395D01*
X143675608Y-101889787D01*
X143606143Y-101647603D01*
X143082698Y-101460856D01*
X142527632Y-101488638D01*
X142143857Y-101647603D01*
X142074392Y-101889787D01*
X141330432Y-101889787D01*
X141127370Y-101686371D01*
X140614100Y-101473243D01*
X140058339Y-101472758D01*
X139544697Y-101684990D01*
X139151371Y-102077630D01*
X138938243Y-102590900D01*
X138937758Y-103146661D01*
X127346863Y-103146661D01*
X128291623Y-102203549D01*
X128884324Y-100776165D01*
X128884329Y-100769384D01*
X171114327Y-100769384D01*
X171704537Y-102197801D01*
X172796451Y-103291623D01*
X174223835Y-103884324D01*
X175769384Y-103885673D01*
X177197801Y-103295463D01*
X178291623Y-102203549D01*
X178884324Y-100776165D01*
X178885673Y-99230616D01*
X178295463Y-97802199D01*
X177203549Y-96708377D01*
X175776165Y-96115676D01*
X174230616Y-96114327D01*
X172802199Y-96704537D01*
X171708377Y-97796451D01*
X171115676Y-99223835D01*
X171114327Y-100769384D01*
X128884329Y-100769384D01*
X128885673Y-99230616D01*
X128295463Y-97802199D01*
X127203549Y-96708377D01*
X125776165Y-96115676D01*
X124230616Y-96114327D01*
X122802199Y-96704537D01*
X121708377Y-97796451D01*
X121115676Y-99223835D01*
X121114327Y-100769384D01*
X118872000Y-100769384D01*
X118872000Y-91890000D01*
X135862560Y-91890000D01*
X135862560Y-93190000D01*
X135906838Y-93425317D01*
X136045910Y-93641441D01*
X136258110Y-93786431D01*
X136510000Y-93837440D01*
X137810000Y-93837440D01*
X138045317Y-93793162D01*
X138261441Y-93654090D01*
X138406431Y-93441890D01*
X138457440Y-93190000D01*
X138457440Y-91890000D01*
X149197560Y-91890000D01*
X149197560Y-93190000D01*
X149241838Y-93425317D01*
X149380910Y-93641441D01*
X149593110Y-93786431D01*
X149845000Y-93837440D01*
X151145000Y-93837440D01*
X151380317Y-93793162D01*
X151596441Y-93654090D01*
X151741431Y-93441890D01*
X151792440Y-93190000D01*
X151792440Y-92685750D01*
X163180000Y-92685750D01*
X163180000Y-93176309D01*
X163276673Y-93409698D01*
X163455301Y-93588327D01*
X163688690Y-93685000D01*
X164179250Y-93685000D01*
X164338000Y-93526250D01*
X164338000Y-92527000D01*
X164592000Y-92527000D01*
X164592000Y-93526250D01*
X164750750Y-93685000D01*
X165241310Y-93685000D01*
X165474699Y-93588327D01*
X165653327Y-93409698D01*
X165750000Y-93176309D01*
X165750000Y-92685750D01*
X165591250Y-92527000D01*
X164592000Y-92527000D01*
X164338000Y-92527000D01*
X163338750Y-92527000D01*
X163180000Y-92685750D01*
X151792440Y-92685750D01*
X151792440Y-91890000D01*
X151748162Y-91654683D01*
X151609090Y-91438559D01*
X151396890Y-91293569D01*
X151145000Y-91242560D01*
X150982615Y-91242560D01*
X151158729Y-91169611D01*
X151214410Y-90939016D01*
X150495000Y-90219605D01*
X149775590Y-90939016D01*
X149831271Y-91169611D01*
X150040902Y-91242560D01*
X149845000Y-91242560D01*
X149609683Y-91286838D01*
X149393559Y-91425910D01*
X149248569Y-91638110D01*
X149197560Y-91890000D01*
X138457440Y-91890000D01*
X138413162Y-91654683D01*
X138274090Y-91438559D01*
X138061890Y-91293569D01*
X137810000Y-91242560D01*
X137647615Y-91242560D01*
X137823729Y-91169611D01*
X137879410Y-90939016D01*
X137160000Y-90219605D01*
X136440590Y-90939016D01*
X136496271Y-91169611D01*
X136705902Y-91242560D01*
X136510000Y-91242560D01*
X136274683Y-91286838D01*
X136058559Y-91425910D01*
X135913569Y-91638110D01*
X135862560Y-91890000D01*
X118872000Y-91890000D01*
X118872000Y-89859078D01*
X135862378Y-89859078D01*
X135891917Y-90369428D01*
X136030389Y-90703729D01*
X136260984Y-90759410D01*
X136980395Y-90040000D01*
X137339605Y-90040000D01*
X138059016Y-90759410D01*
X138289611Y-90703729D01*
X138457622Y-90220922D01*
X138436679Y-89859078D01*
X149197378Y-89859078D01*
X149226917Y-90369428D01*
X149365389Y-90703729D01*
X149595984Y-90759410D01*
X150315395Y-90040000D01*
X150674605Y-90040000D01*
X151394016Y-90759410D01*
X151624611Y-90703729D01*
X151792622Y-90220922D01*
X151788777Y-90154481D01*
X163179777Y-90154481D01*
X163374995Y-90626943D01*
X163736155Y-90988735D01*
X164040235Y-91115000D01*
X163688690Y-91115000D01*
X163455301Y-91211673D01*
X163276673Y-91390302D01*
X163180000Y-91623691D01*
X163180000Y-92114250D01*
X163338750Y-92273000D01*
X164338000Y-92273000D01*
X164338000Y-92253000D01*
X164592000Y-92253000D01*
X164592000Y-92273000D01*
X165591250Y-92273000D01*
X165750000Y-92114250D01*
X165750000Y-91623691D01*
X165653327Y-91390302D01*
X165474699Y-91211673D01*
X165241310Y-91115000D01*
X164889433Y-91115000D01*
X165191943Y-90990005D01*
X165553735Y-90628845D01*
X165749777Y-90156724D01*
X165750223Y-89645519D01*
X165555005Y-89173057D01*
X165193845Y-88811265D01*
X164721724Y-88615223D01*
X164210519Y-88614777D01*
X163738057Y-88809995D01*
X163376265Y-89171155D01*
X163180223Y-89643276D01*
X163179777Y-90154481D01*
X151788777Y-90154481D01*
X151763083Y-89710572D01*
X151624611Y-89376271D01*
X151394016Y-89320590D01*
X150674605Y-90040000D01*
X150315395Y-90040000D01*
X149595984Y-89320590D01*
X149365389Y-89376271D01*
X149197378Y-89859078D01*
X138436679Y-89859078D01*
X138428083Y-89710572D01*
X138289611Y-89376271D01*
X138059016Y-89320590D01*
X137339605Y-90040000D01*
X136980395Y-90040000D01*
X136260984Y-89320590D01*
X136030389Y-89376271D01*
X135862378Y-89859078D01*
X118872000Y-89859078D01*
X118872000Y-89140984D01*
X136440590Y-89140984D01*
X137160000Y-89860395D01*
X137879410Y-89140984D01*
X149775590Y-89140984D01*
X150495000Y-89860395D01*
X151214410Y-89140984D01*
X151158729Y-88910389D01*
X150675922Y-88742378D01*
X150165572Y-88771917D01*
X149831271Y-88910389D01*
X149775590Y-89140984D01*
X137879410Y-89140984D01*
X137823729Y-88910389D01*
X137340922Y-88742378D01*
X136830572Y-88771917D01*
X136496271Y-88910389D01*
X136440590Y-89140984D01*
X118872000Y-89140984D01*
X118872000Y-75769384D01*
X121114327Y-75769384D01*
X121704537Y-77197801D01*
X122796451Y-78291623D01*
X124223835Y-78884324D01*
X125769384Y-78885673D01*
X127197801Y-78295463D01*
X128291623Y-77203549D01*
X128884324Y-75776165D01*
X128884905Y-75110340D01*
X131968500Y-75110340D01*
X131968500Y-78610460D01*
X132012778Y-78845777D01*
X132151850Y-79061901D01*
X132364050Y-79206891D01*
X132615940Y-79257900D01*
X136116060Y-79257900D01*
X136351377Y-79213622D01*
X136567501Y-79074550D01*
X136667500Y-78928197D01*
X136667500Y-81610200D01*
X136711778Y-81845517D01*
X136850850Y-82061641D01*
X137063050Y-82206631D01*
X137314940Y-82257640D01*
X140815060Y-82257640D01*
X141050377Y-82213362D01*
X141266501Y-82074290D01*
X141411491Y-81862090D01*
X141462500Y-81610200D01*
X141462500Y-80001025D01*
X148778581Y-80001025D01*
X148895601Y-80283446D01*
X149559663Y-80535018D01*
X150269448Y-80513314D01*
X150824399Y-80283446D01*
X150941418Y-80001026D01*
X151007932Y-80067540D01*
X150847633Y-80227559D01*
X150575311Y-80883384D01*
X150574691Y-81593501D01*
X150845868Y-82249800D01*
X151347559Y-82752367D01*
X152003384Y-83024689D01*
X152713501Y-83025309D01*
X153369800Y-82754132D01*
X153872367Y-82252441D01*
X154144689Y-81596616D01*
X154144691Y-81593501D01*
X160574691Y-81593501D01*
X160845868Y-82249800D01*
X161347559Y-82752367D01*
X162003384Y-83024689D01*
X162713501Y-83025309D01*
X163369800Y-82754132D01*
X163872367Y-82252441D01*
X164144689Y-81596616D01*
X164145309Y-80886499D01*
X163890692Y-80270277D01*
X164503384Y-80524689D01*
X165213501Y-80525309D01*
X165869800Y-80254132D01*
X166372367Y-79752441D01*
X166644689Y-79096616D01*
X166645309Y-78386499D01*
X166374132Y-77730200D01*
X165872441Y-77227633D01*
X165216616Y-76955311D01*
X164506499Y-76954691D01*
X163850200Y-77225868D01*
X163347633Y-77727559D01*
X163075311Y-78383384D01*
X163074691Y-79093501D01*
X163329308Y-79709723D01*
X162716616Y-79455311D01*
X162006499Y-79454691D01*
X161350200Y-79725868D01*
X160847633Y-80227559D01*
X160575311Y-80883384D01*
X160574691Y-81593501D01*
X154144691Y-81593501D01*
X154145309Y-80886499D01*
X153874132Y-80230200D01*
X153372441Y-79727633D01*
X152716616Y-79455311D01*
X152006499Y-79454691D01*
X151403685Y-79703769D01*
X151634877Y-79093501D01*
X155574691Y-79093501D01*
X155845868Y-79749800D01*
X156347559Y-80252367D01*
X157003384Y-80524689D01*
X157713501Y-80525309D01*
X158369800Y-80254132D01*
X158872367Y-79752441D01*
X159144689Y-79096616D01*
X159145309Y-78386499D01*
X158874132Y-77730200D01*
X158372441Y-77227633D01*
X157716616Y-76955311D01*
X157006499Y-76954691D01*
X156350200Y-77225868D01*
X155847633Y-77727559D01*
X155575311Y-78383384D01*
X155574691Y-79093501D01*
X151634877Y-79093501D01*
X151655018Y-79040337D01*
X151633314Y-78330552D01*
X151403446Y-77775601D01*
X151121025Y-77658581D01*
X150039605Y-78740000D01*
X150053748Y-78754142D01*
X149874142Y-78933748D01*
X149860000Y-78919605D01*
X148778581Y-80001025D01*
X141462500Y-80001025D01*
X141462500Y-78439663D01*
X148064982Y-78439663D01*
X148086686Y-79149448D01*
X148316554Y-79704399D01*
X148598975Y-79821419D01*
X149680395Y-78740000D01*
X148598975Y-77658581D01*
X148316554Y-77775601D01*
X148064982Y-78439663D01*
X141462500Y-78439663D01*
X141462500Y-78110080D01*
X141418222Y-77874763D01*
X141279150Y-77658639D01*
X141066950Y-77513649D01*
X140895725Y-77478975D01*
X148778581Y-77478975D01*
X149860000Y-78560395D01*
X150941419Y-77478975D01*
X150824399Y-77196554D01*
X150160337Y-76944982D01*
X149450552Y-76966686D01*
X148895601Y-77196554D01*
X148778581Y-77478975D01*
X140895725Y-77478975D01*
X140815060Y-77462640D01*
X137314940Y-77462640D01*
X137079623Y-77506918D01*
X136863499Y-77645990D01*
X136763500Y-77792343D01*
X136763500Y-75938760D01*
X136776613Y-75970418D01*
X136955241Y-76149047D01*
X137188630Y-76245720D01*
X138779250Y-76245720D01*
X138938000Y-76086970D01*
X138938000Y-73987660D01*
X139192000Y-73987660D01*
X139192000Y-76086970D01*
X139350750Y-76245720D01*
X140941370Y-76245720D01*
X141174759Y-76149047D01*
X141353387Y-75970418D01*
X141436658Y-75769384D01*
X171114327Y-75769384D01*
X171704537Y-77197801D01*
X172796451Y-78291623D01*
X174223835Y-78884324D01*
X175769384Y-78885673D01*
X177197801Y-78295463D01*
X178291623Y-77203549D01*
X178884324Y-75776165D01*
X178885673Y-74230616D01*
X178295463Y-72802199D01*
X177203549Y-71708377D01*
X175776165Y-71115676D01*
X174230616Y-71114327D01*
X172802199Y-71704537D01*
X171708377Y-72796451D01*
X171115676Y-74223835D01*
X171114327Y-75769384D01*
X141436658Y-75769384D01*
X141450060Y-75737029D01*
X141450060Y-74146410D01*
X141291310Y-73987660D01*
X139192000Y-73987660D01*
X138938000Y-73987660D01*
X136838690Y-73987660D01*
X136679940Y-74146410D01*
X136679940Y-74813977D01*
X136580150Y-74658899D01*
X136367950Y-74513909D01*
X136116060Y-74462900D01*
X132615940Y-74462900D01*
X132380623Y-74507178D01*
X132164499Y-74646250D01*
X132019509Y-74858450D01*
X131968500Y-75110340D01*
X128884905Y-75110340D01*
X128885673Y-74230616D01*
X128295463Y-72802199D01*
X127478982Y-71984291D01*
X136679940Y-71984291D01*
X136679940Y-73574910D01*
X136838690Y-73733660D01*
X138938000Y-73733660D01*
X138938000Y-71634350D01*
X139192000Y-71634350D01*
X139192000Y-73733660D01*
X141291310Y-73733660D01*
X141450060Y-73574910D01*
X141450060Y-71984291D01*
X141353387Y-71750902D01*
X141174759Y-71572273D01*
X140941370Y-71475600D01*
X139350750Y-71475600D01*
X139192000Y-71634350D01*
X138938000Y-71634350D01*
X138779250Y-71475600D01*
X137188630Y-71475600D01*
X136955241Y-71572273D01*
X136776613Y-71750902D01*
X136679940Y-71984291D01*
X127478982Y-71984291D01*
X127203549Y-71708377D01*
X125776165Y-71115676D01*
X124230616Y-71114327D01*
X122802199Y-71704537D01*
X121708377Y-72796451D01*
X121115676Y-74223835D01*
X121114327Y-75769384D01*
X118872000Y-75769384D01*
X118872000Y-67437000D01*
X153851016Y-67437000D01*
X153474722Y-67812637D01*
X153474722Y-67812637D01*
G37*
X153474722Y-67812637D02*
X153225284Y-68413352D01*
X153224716Y-69063795D01*
X153473106Y-69664943D01*
X153932637Y-70125278D01*
X154533352Y-70374716D01*
X155183795Y-70375284D01*
X155784943Y-70126894D01*
X156245278Y-69667363D01*
X156494716Y-69066648D01*
X156495284Y-68416205D01*
X156246894Y-67815057D01*
X155869497Y-67437000D01*
X158851016Y-67437000D01*
X158474722Y-67812637D01*
X158225284Y-68413352D01*
X158224716Y-69063795D01*
X158473106Y-69664943D01*
X158932637Y-70125278D01*
X159533352Y-70374716D01*
X160183795Y-70375284D01*
X160784943Y-70126894D01*
X161245278Y-69667363D01*
X161494716Y-69066648D01*
X161495284Y-68416205D01*
X161246894Y-67815057D01*
X160869497Y-67437000D01*
X181483000Y-67437000D01*
X181483000Y-107188000D01*
X118872000Y-107188000D01*
X118872000Y-100769384D01*
X121114327Y-100769384D01*
X121704537Y-102197801D01*
X122796451Y-103291623D01*
X124223835Y-103884324D01*
X125769384Y-103885673D01*
X127197801Y-103295463D01*
X127346863Y-103146661D01*
X138937758Y-103146661D01*
X139149990Y-103660303D01*
X139542630Y-104053629D01*
X140055900Y-104266757D01*
X140611661Y-104267242D01*
X141125303Y-104055010D01*
X141330457Y-103850213D01*
X142074392Y-103850213D01*
X142143857Y-104092397D01*
X142667302Y-104279144D01*
X143222368Y-104251362D01*
X143606143Y-104092397D01*
X143675608Y-103850213D01*
X142875000Y-103049605D01*
X142074392Y-103850213D01*
X141330457Y-103850213D01*
X141518629Y-103662370D01*
X141598395Y-103470273D01*
X141652603Y-103601143D01*
X141894787Y-103670608D01*
X142695395Y-102870000D01*
X143054605Y-102870000D01*
X143855213Y-103670608D01*
X144097397Y-103601143D01*
X144147509Y-103460682D01*
X144229990Y-103660303D01*
X144622630Y-104053629D01*
X145135900Y-104266757D01*
X145691661Y-104267242D01*
X146205303Y-104055010D01*
X146598629Y-103662370D01*
X146684949Y-103454488D01*
X146769990Y-103660303D01*
X147162630Y-104053629D01*
X147675900Y-104266757D01*
X148231661Y-104267242D01*
X148745303Y-104055010D01*
X149138629Y-103662370D01*
X149351757Y-103149100D01*
X149351759Y-103146661D01*
X151637758Y-103146661D01*
X151849990Y-103660303D01*
X152242630Y-104053629D01*
X152755900Y-104266757D01*
X153311661Y-104267242D01*
X153825303Y-104055010D01*
X154218629Y-103662370D01*
X154304949Y-103454488D01*
X154389990Y-103660303D01*
X154782630Y-104053629D01*
X155295900Y-104266757D01*
X155851661Y-104267242D01*
X156365303Y-104055010D01*
X156570457Y-103850213D01*
X157314392Y-103850213D01*
X157383857Y-104092397D01*
X157907302Y-104279144D01*
X158462368Y-104251362D01*
X158846143Y-104092397D01*
X158915608Y-103850213D01*
X158115000Y-103049605D01*
X157314392Y-103850213D01*
X156570457Y-103850213D01*
X156758629Y-103662370D01*
X156838395Y-103470273D01*
X156892603Y-103601143D01*
X157134787Y-103670608D01*
X157935395Y-102870000D01*
X158294605Y-102870000D01*
X159095213Y-103670608D01*
X159337397Y-103601143D01*
X159524144Y-103077698D01*
X159496362Y-102522632D01*
X159337397Y-102138857D01*
X159095213Y-102069392D01*
X158294605Y-102870000D01*
X157935395Y-102870000D01*
X157134787Y-102069392D01*
X156892603Y-102138857D01*
X156842491Y-102279318D01*
X156760010Y-102079697D01*
X156570432Y-101889787D01*
X157314392Y-101889787D01*
X158115000Y-102690395D01*
X158915608Y-101889787D01*
X158846143Y-101647603D01*
X158322698Y-101460856D01*
X157767632Y-101488638D01*
X157383857Y-101647603D01*
X157314392Y-101889787D01*
X156570432Y-101889787D01*
X156367370Y-101686371D01*
X155854100Y-101473243D01*
X155298339Y-101472758D01*
X154784697Y-101684990D01*
X154391371Y-102077630D01*
X154305051Y-102285512D01*
X154220010Y-102079697D01*
X153827370Y-101686371D01*
X153314100Y-101473243D01*
X152758339Y-101472758D01*
X152244697Y-101684990D01*
X151851371Y-102077630D01*
X151638243Y-102590900D01*
X151637758Y-103146661D01*
X149351759Y-103146661D01*
X149352242Y-102593339D01*
X149140010Y-102079697D01*
X148747370Y-101686371D01*
X148234100Y-101473243D01*
X147678339Y-101472758D01*
X147164697Y-101684990D01*
X146771371Y-102077630D01*
X146685051Y-102285512D01*
X146600010Y-102079697D01*
X146207370Y-101686371D01*
X145694100Y-101473243D01*
X145138339Y-101472758D01*
X144624697Y-101684990D01*
X144231371Y-102077630D01*
X144151605Y-102269727D01*
X144097397Y-102138857D01*
X143855213Y-102069392D01*
X143054605Y-102870000D01*
X142695395Y-102870000D01*
X141894787Y-102069392D01*
X141652603Y-102138857D01*
X141602491Y-102279318D01*
X141520010Y-102079697D01*
X141330432Y-101889787D01*
X142074392Y-101889787D01*
X142875000Y-102690395D01*
X143675608Y-101889787D01*
X143606143Y-101647603D01*
X143082698Y-101460856D01*
X142527632Y-101488638D01*
X142143857Y-101647603D01*
X142074392Y-101889787D01*
X141330432Y-101889787D01*
X141127370Y-101686371D01*
X140614100Y-101473243D01*
X140058339Y-101472758D01*
X139544697Y-101684990D01*
X139151371Y-102077630D01*
X138938243Y-102590900D01*
X138937758Y-103146661D01*
X127346863Y-103146661D01*
X128291623Y-102203549D01*
X128884324Y-100776165D01*
X128884329Y-100769384D01*
X171114327Y-100769384D01*
X171704537Y-102197801D01*
X172796451Y-103291623D01*
X174223835Y-103884324D01*
X175769384Y-103885673D01*
X177197801Y-103295463D01*
X178291623Y-102203549D01*
X178884324Y-100776165D01*
X178885673Y-99230616D01*
X178295463Y-97802199D01*
X177203549Y-96708377D01*
X175776165Y-96115676D01*
X174230616Y-96114327D01*
X172802199Y-96704537D01*
X171708377Y-97796451D01*
X171115676Y-99223835D01*
X171114327Y-100769384D01*
X128884329Y-100769384D01*
X128885673Y-99230616D01*
X128295463Y-97802199D01*
X127203549Y-96708377D01*
X125776165Y-96115676D01*
X124230616Y-96114327D01*
X122802199Y-96704537D01*
X121708377Y-97796451D01*
X121115676Y-99223835D01*
X121114327Y-100769384D01*
X118872000Y-100769384D01*
X118872000Y-91890000D01*
X135862560Y-91890000D01*
X135862560Y-93190000D01*
X135906838Y-93425317D01*
X136045910Y-93641441D01*
X136258110Y-93786431D01*
X136510000Y-93837440D01*
X137810000Y-93837440D01*
X138045317Y-93793162D01*
X138261441Y-93654090D01*
X138406431Y-93441890D01*
X138457440Y-93190000D01*
X138457440Y-91890000D01*
X149197560Y-91890000D01*
X149197560Y-93190000D01*
X149241838Y-93425317D01*
X149380910Y-93641441D01*
X149593110Y-93786431D01*
X149845000Y-93837440D01*
X151145000Y-93837440D01*
X151380317Y-93793162D01*
X151596441Y-93654090D01*
X151741431Y-93441890D01*
X151792440Y-93190000D01*
X151792440Y-92685750D01*
X163180000Y-92685750D01*
X163180000Y-93176309D01*
X163276673Y-93409698D01*
X163455301Y-93588327D01*
X163688690Y-93685000D01*
X164179250Y-93685000D01*
X164338000Y-93526250D01*
X164338000Y-92527000D01*
X164592000Y-92527000D01*
X164592000Y-93526250D01*
X164750750Y-93685000D01*
X165241310Y-93685000D01*
X165474699Y-93588327D01*
X165653327Y-93409698D01*
X165750000Y-93176309D01*
X165750000Y-92685750D01*
X165591250Y-92527000D01*
X164592000Y-92527000D01*
X164338000Y-92527000D01*
X163338750Y-92527000D01*
X163180000Y-92685750D01*
X151792440Y-92685750D01*
X151792440Y-91890000D01*
X151748162Y-91654683D01*
X151609090Y-91438559D01*
X151396890Y-91293569D01*
X151145000Y-91242560D01*
X150982615Y-91242560D01*
X151158729Y-91169611D01*
X151214410Y-90939016D01*
X150495000Y-90219605D01*
X149775590Y-90939016D01*
X149831271Y-91169611D01*
X150040902Y-91242560D01*
X149845000Y-91242560D01*
X149609683Y-91286838D01*
X149393559Y-91425910D01*
X149248569Y-91638110D01*
X149197560Y-91890000D01*
X138457440Y-91890000D01*
X138413162Y-91654683D01*
X138274090Y-91438559D01*
X138061890Y-91293569D01*
X137810000Y-91242560D01*
X137647615Y-91242560D01*
X137823729Y-91169611D01*
X137879410Y-90939016D01*
X137160000Y-90219605D01*
X136440590Y-90939016D01*
X136496271Y-91169611D01*
X136705902Y-91242560D01*
X136510000Y-91242560D01*
X136274683Y-91286838D01*
X136058559Y-91425910D01*
X135913569Y-91638110D01*
X135862560Y-91890000D01*
X118872000Y-91890000D01*
X118872000Y-89859078D01*
X135862378Y-89859078D01*
X135891917Y-90369428D01*
X136030389Y-90703729D01*
X136260984Y-90759410D01*
X136980395Y-90040000D01*
X137339605Y-90040000D01*
X138059016Y-90759410D01*
X138289611Y-90703729D01*
X138457622Y-90220922D01*
X138436679Y-89859078D01*
X149197378Y-89859078D01*
X149226917Y-90369428D01*
X149365389Y-90703729D01*
X149595984Y-90759410D01*
X150315395Y-90040000D01*
X150674605Y-90040000D01*
X151394016Y-90759410D01*
X151624611Y-90703729D01*
X151792622Y-90220922D01*
X151788777Y-90154481D01*
X163179777Y-90154481D01*
X163374995Y-90626943D01*
X163736155Y-90988735D01*
X164040235Y-91115000D01*
X163688690Y-91115000D01*
X163455301Y-91211673D01*
X163276673Y-91390302D01*
X163180000Y-91623691D01*
X163180000Y-92114250D01*
X163338750Y-92273000D01*
X164338000Y-92273000D01*
X164338000Y-92253000D01*
X164592000Y-92253000D01*
X164592000Y-92273000D01*
X165591250Y-92273000D01*
X165750000Y-92114250D01*
X165750000Y-91623691D01*
X165653327Y-91390302D01*
X165474699Y-91211673D01*
X165241310Y-91115000D01*
X164889433Y-91115000D01*
X165191943Y-90990005D01*
X165553735Y-90628845D01*
X165749777Y-90156724D01*
X165750223Y-89645519D01*
X165555005Y-89173057D01*
X165193845Y-88811265D01*
X164721724Y-88615223D01*
X164210519Y-88614777D01*
X163738057Y-88809995D01*
X163376265Y-89171155D01*
X163180223Y-89643276D01*
X163179777Y-90154481D01*
X151788777Y-90154481D01*
X151763083Y-89710572D01*
X151624611Y-89376271D01*
X151394016Y-89320590D01*
X150674605Y-90040000D01*
X150315395Y-90040000D01*
X149595984Y-89320590D01*
X149365389Y-89376271D01*
X149197378Y-89859078D01*
X138436679Y-89859078D01*
X138428083Y-89710572D01*
X138289611Y-89376271D01*
X138059016Y-89320590D01*
X137339605Y-90040000D01*
X136980395Y-90040000D01*
X136260984Y-89320590D01*
X136030389Y-89376271D01*
X135862378Y-89859078D01*
X118872000Y-89859078D01*
X118872000Y-89140984D01*
X136440590Y-89140984D01*
X137160000Y-89860395D01*
X137879410Y-89140984D01*
X149775590Y-89140984D01*
X150495000Y-89860395D01*
X151214410Y-89140984D01*
X151158729Y-88910389D01*
X150675922Y-88742378D01*
X150165572Y-88771917D01*
X149831271Y-88910389D01*
X149775590Y-89140984D01*
X137879410Y-89140984D01*
X137823729Y-88910389D01*
X137340922Y-88742378D01*
X136830572Y-88771917D01*
X136496271Y-88910389D01*
X136440590Y-89140984D01*
X118872000Y-89140984D01*
X118872000Y-75769384D01*
X121114327Y-75769384D01*
X121704537Y-77197801D01*
X122796451Y-78291623D01*
X124223835Y-78884324D01*
X125769384Y-78885673D01*
X127197801Y-78295463D01*
X128291623Y-77203549D01*
X128884324Y-75776165D01*
X128884905Y-75110340D01*
X131968500Y-75110340D01*
X131968500Y-78610460D01*
X132012778Y-78845777D01*
X132151850Y-79061901D01*
X132364050Y-79206891D01*
X132615940Y-79257900D01*
X136116060Y-79257900D01*
X136351377Y-79213622D01*
X136567501Y-79074550D01*
X136667500Y-78928197D01*
X136667500Y-81610200D01*
X136711778Y-81845517D01*
X136850850Y-82061641D01*
X137063050Y-82206631D01*
X137314940Y-82257640D01*
X140815060Y-82257640D01*
X141050377Y-82213362D01*
X141266501Y-82074290D01*
X141411491Y-81862090D01*
X141462500Y-81610200D01*
X141462500Y-80001025D01*
X148778581Y-80001025D01*
X148895601Y-80283446D01*
X149559663Y-80535018D01*
X150269448Y-80513314D01*
X150824399Y-80283446D01*
X150941418Y-80001026D01*
X151007932Y-80067540D01*
X150847633Y-80227559D01*
X150575311Y-80883384D01*
X150574691Y-81593501D01*
X150845868Y-82249800D01*
X151347559Y-82752367D01*
X152003384Y-83024689D01*
X152713501Y-83025309D01*
X153369800Y-82754132D01*
X153872367Y-82252441D01*
X154144689Y-81596616D01*
X154144691Y-81593501D01*
X160574691Y-81593501D01*
X160845868Y-82249800D01*
X161347559Y-82752367D01*
X162003384Y-83024689D01*
X162713501Y-83025309D01*
X163369800Y-82754132D01*
X163872367Y-82252441D01*
X164144689Y-81596616D01*
X164145309Y-80886499D01*
X163890692Y-80270277D01*
X164503384Y-80524689D01*
X165213501Y-80525309D01*
X165869800Y-80254132D01*
X166372367Y-79752441D01*
X166644689Y-79096616D01*
X166645309Y-78386499D01*
X166374132Y-77730200D01*
X165872441Y-77227633D01*
X165216616Y-76955311D01*
X164506499Y-76954691D01*
X163850200Y-77225868D01*
X163347633Y-77727559D01*
X163075311Y-78383384D01*
X163074691Y-79093501D01*
X163329308Y-79709723D01*
X162716616Y-79455311D01*
X162006499Y-79454691D01*
X161350200Y-79725868D01*
X160847633Y-80227559D01*
X160575311Y-80883384D01*
X160574691Y-81593501D01*
X154144691Y-81593501D01*
X154145309Y-80886499D01*
X153874132Y-80230200D01*
X153372441Y-79727633D01*
X152716616Y-79455311D01*
X152006499Y-79454691D01*
X151403685Y-79703769D01*
X151634877Y-79093501D01*
X155574691Y-79093501D01*
X155845868Y-79749800D01*
X156347559Y-80252367D01*
X157003384Y-80524689D01*
X157713501Y-80525309D01*
X158369800Y-80254132D01*
X158872367Y-79752441D01*
X159144689Y-79096616D01*
X159145309Y-78386499D01*
X158874132Y-77730200D01*
X158372441Y-77227633D01*
X157716616Y-76955311D01*
X157006499Y-76954691D01*
X156350200Y-77225868D01*
X155847633Y-77727559D01*
X155575311Y-78383384D01*
X155574691Y-79093501D01*
X151634877Y-79093501D01*
X151655018Y-79040337D01*
X151633314Y-78330552D01*
X151403446Y-77775601D01*
X151121025Y-77658581D01*
X150039605Y-78740000D01*
X150053748Y-78754142D01*
X149874142Y-78933748D01*
X149860000Y-78919605D01*
X148778581Y-80001025D01*
X141462500Y-80001025D01*
X141462500Y-78439663D01*
X148064982Y-78439663D01*
X148086686Y-79149448D01*
X148316554Y-79704399D01*
X148598975Y-79821419D01*
X149680395Y-78740000D01*
X148598975Y-77658581D01*
X148316554Y-77775601D01*
X148064982Y-78439663D01*
X141462500Y-78439663D01*
X141462500Y-78110080D01*
X141418222Y-77874763D01*
X141279150Y-77658639D01*
X141066950Y-77513649D01*
X140895725Y-77478975D01*
X148778581Y-77478975D01*
X149860000Y-78560395D01*
X150941419Y-77478975D01*
X150824399Y-77196554D01*
X150160337Y-76944982D01*
X149450552Y-76966686D01*
X148895601Y-77196554D01*
X148778581Y-77478975D01*
X140895725Y-77478975D01*
X140815060Y-77462640D01*
X137314940Y-77462640D01*
X137079623Y-77506918D01*
X136863499Y-77645990D01*
X136763500Y-77792343D01*
X136763500Y-75938760D01*
X136776613Y-75970418D01*
X136955241Y-76149047D01*
X137188630Y-76245720D01*
X138779250Y-76245720D01*
X138938000Y-76086970D01*
X138938000Y-73987660D01*
X139192000Y-73987660D01*
X139192000Y-76086970D01*
X139350750Y-76245720D01*
X140941370Y-76245720D01*
X141174759Y-76149047D01*
X141353387Y-75970418D01*
X141436658Y-75769384D01*
X171114327Y-75769384D01*
X171704537Y-77197801D01*
X172796451Y-78291623D01*
X174223835Y-78884324D01*
X175769384Y-78885673D01*
X177197801Y-78295463D01*
X178291623Y-77203549D01*
X178884324Y-75776165D01*
X178885673Y-74230616D01*
X178295463Y-72802199D01*
X177203549Y-71708377D01*
X175776165Y-71115676D01*
X174230616Y-71114327D01*
X172802199Y-71704537D01*
X171708377Y-72796451D01*
X171115676Y-74223835D01*
X171114327Y-75769384D01*
X141436658Y-75769384D01*
X141450060Y-75737029D01*
X141450060Y-74146410D01*
X141291310Y-73987660D01*
X139192000Y-73987660D01*
X138938000Y-73987660D01*
X136838690Y-73987660D01*
X136679940Y-74146410D01*
X136679940Y-74813977D01*
X136580150Y-74658899D01*
X136367950Y-74513909D01*
X136116060Y-74462900D01*
X132615940Y-74462900D01*
X132380623Y-74507178D01*
X132164499Y-74646250D01*
X132019509Y-74858450D01*
X131968500Y-75110340D01*
X128884905Y-75110340D01*
X128885673Y-74230616D01*
X128295463Y-72802199D01*
X127478982Y-71984291D01*
X136679940Y-71984291D01*
X136679940Y-73574910D01*
X136838690Y-73733660D01*
X138938000Y-73733660D01*
X138938000Y-71634350D01*
X139192000Y-71634350D01*
X139192000Y-73733660D01*
X141291310Y-73733660D01*
X141450060Y-73574910D01*
X141450060Y-71984291D01*
X141353387Y-71750902D01*
X141174759Y-71572273D01*
X140941370Y-71475600D01*
X139350750Y-71475600D01*
X139192000Y-71634350D01*
X138938000Y-71634350D01*
X138779250Y-71475600D01*
X137188630Y-71475600D01*
X136955241Y-71572273D01*
X136776613Y-71750902D01*
X136679940Y-71984291D01*
X127478982Y-71984291D01*
X127203549Y-71708377D01*
X125776165Y-71115676D01*
X124230616Y-71114327D01*
X122802199Y-71704537D01*
X121708377Y-72796451D01*
X121115676Y-74223835D01*
X121114327Y-75769384D01*
X118872000Y-75769384D01*
X118872000Y-67437000D01*
X153851016Y-67437000D01*
X153474722Y-67812637D01*
M02*
