M48
;DRILL file {KiCad 4.0.2-stable} date Wednesday, July 27, 2016 'PMt' 01:40:38 PM
;FORMAT={-:-/ absolute / inch / decimal}
FMAT,2
INCH,TZ
T1C0.013
T2C0.040
T3C0.047
T4C0.098
T5C0.106
T6C0.118
%
G90
G05
M72
T1
X5.03Y-4.4
X5.11Y-4.66
X5.17Y-4.6
X5.54Y-4.25
X5.54Y-4.36
X5.54Y-4.4
X5.54Y-4.44
X5.58Y-4.4
X6.07Y-3.88
X6.07Y-3.92
X6.07Y-3.96
X6.07Y-4.06
X6.11Y-3.92
T2
X4.2Y-3.65
X4.2Y-3.75
X4.2Y-3.85
X4.2Y-3.95
X4.2Y-4.05
X4.2Y-4.15
X4.2Y-4.25
X4.2Y-4.35
X4.2Y-4.45
X4.2Y-4.55
X4.2Y-4.65
X4.2Y-4.75
X4.8Y-3.65
X4.8Y-3.75
X4.8Y-3.85
X4.8Y-3.95
X4.8Y-4.05
X4.8Y-4.15
X4.8Y-4.25
X4.8Y-4.35
X4.8Y-4.45
X4.8Y-4.55
X4.8Y-4.65
X4.8Y-4.75
X5.08Y-3.65
X5.08Y-3.75
X5.08Y-3.85
X5.08Y-3.95
X5.08Y-4.05
T3
X6.09Y-4.2322
X6.09Y-4.37
T4
X4.5Y-4.7
X6.Y-4.7
T5
X4.5Y-3.7
X6.Y-3.7
T6
X5.34Y-3.7931
X5.525Y-3.675
X5.525Y-3.9112
T0
M30
