G04 #@! TF.FileFunction,Soldermask,Top*
%FSLAX46Y46*%
G04 Gerber Fmt 4.6, Leading zero omitted, Abs format (unit mm)*
G04 Created by KiCad (PCBNEW 4.0.2-stable) date Wednesday, July 27, 2016 'PMt' 01:40:30 PM*
%MOMM*%
G01*
G04 APERTURE LIST*
%ADD10C,0.100000*%
%ADD11R,1.200000X1.150000*%
%ADD12R,3.900120X3.900120*%
%ADD13R,2.432000X2.127200*%
%ADD14O,2.432000X2.127200*%
%ADD15C,2.800000*%
%ADD16R,2.800000X2.800000*%
%ADD17R,2.051000X3.448000*%
%ADD18R,6.496000X6.496000*%
%ADD19R,0.900000X1.300000*%
%ADD20R,1.950000X1.000000*%
%ADD21R,1.300000X0.900000*%
G04 APERTURE END LIST*
D10*
D11*
X151384000Y-103124000D03*
X152884000Y-103124000D03*
X128270000Y-116840000D03*
X129770000Y-116840000D03*
X151408000Y-99568000D03*
X152908000Y-99568000D03*
X137795000Y-111760000D03*
X139295000Y-111760000D03*
X137795000Y-107950000D03*
X139295000Y-107950000D03*
D12*
X140335000Y-99344480D03*
X140335000Y-93345000D03*
X135636000Y-96344740D03*
D13*
X121920000Y-120650000D03*
D14*
X121920000Y-118110000D03*
X121920000Y-115570000D03*
X121920000Y-113030000D03*
X121920000Y-110490000D03*
X121920000Y-107950000D03*
X121920000Y-105410000D03*
X121920000Y-102870000D03*
X121920000Y-100330000D03*
X121920000Y-97790000D03*
X121920000Y-95250000D03*
X121920000Y-92710000D03*
D13*
X129032000Y-92710000D03*
D14*
X129032000Y-95250000D03*
X129032000Y-97790000D03*
X129032000Y-100330000D03*
X129032000Y-102870000D03*
D15*
X154686000Y-107498000D03*
D16*
X154686000Y-110998000D03*
D17*
X144272000Y-110998000D03*
D18*
X146558000Y-104648000D03*
D17*
X148844000Y-110998000D03*
D19*
X134100000Y-116840000D03*
X132600000Y-116840000D03*
X135255000Y-104775000D03*
X133755000Y-104775000D03*
X134100000Y-120015000D03*
X132600000Y-120015000D03*
D13*
X106680000Y-120650000D03*
D14*
X106680000Y-118110000D03*
X106680000Y-115570000D03*
X106680000Y-113030000D03*
X106680000Y-110490000D03*
X106680000Y-107950000D03*
X106680000Y-105410000D03*
X106680000Y-102870000D03*
X106680000Y-100330000D03*
X106680000Y-97790000D03*
X106680000Y-95250000D03*
X106680000Y-92710000D03*
D20*
X129351000Y-107950000D03*
X129351000Y-109220000D03*
X129351000Y-110490000D03*
X129351000Y-111760000D03*
X134751000Y-111760000D03*
X134751000Y-110490000D03*
X134751000Y-109220000D03*
X134751000Y-107950000D03*
D21*
X132588000Y-101600000D03*
X132588000Y-100100000D03*
M02*
