G04 #@! TF.FileFunction,Copper,L1,Top,Signal*
%FSLAX46Y46*%
G04 Gerber Fmt 4.6, Leading zero omitted, Abs format (unit mm)*
G04 Created by KiCad (PCBNEW 4.0.2-stable) date Wednesday, July 27, 2016 'PMt' 01:40:30 PM*
%MOMM*%
G01*
G04 APERTURE LIST*
%ADD10C,0.100000*%
%ADD11R,0.800000X0.750000*%
%ADD12R,3.500120X3.500120*%
%ADD13R,2.032000X1.727200*%
%ADD14O,2.032000X1.727200*%
%ADD15C,2.400000*%
%ADD16R,2.400000X2.400000*%
%ADD17R,1.651000X3.048000*%
%ADD18R,6.096000X6.096000*%
%ADD19R,0.500000X0.900000*%
%ADD20R,1.550000X0.600000*%
%ADD21R,0.900000X0.500000*%
%ADD22C,0.685800*%
%ADD23C,0.152400*%
%ADD24C,1.016000*%
%ADD25C,1.524000*%
%ADD26C,0.254000*%
G04 APERTURE END LIST*
D10*
D11*
X151384000Y-103124000D03*
X152884000Y-103124000D03*
X128270000Y-116840000D03*
X129770000Y-116840000D03*
X151408000Y-99568000D03*
X152908000Y-99568000D03*
X137795000Y-111760000D03*
X139295000Y-111760000D03*
X137795000Y-107950000D03*
X139295000Y-107950000D03*
D12*
X140335000Y-99344480D03*
X140335000Y-93345000D03*
X135636000Y-96344740D03*
D13*
X121920000Y-120650000D03*
D14*
X121920000Y-118110000D03*
X121920000Y-115570000D03*
X121920000Y-113030000D03*
X121920000Y-110490000D03*
X121920000Y-107950000D03*
X121920000Y-105410000D03*
X121920000Y-102870000D03*
X121920000Y-100330000D03*
X121920000Y-97790000D03*
X121920000Y-95250000D03*
X121920000Y-92710000D03*
D13*
X129032000Y-92710000D03*
D14*
X129032000Y-95250000D03*
X129032000Y-97790000D03*
X129032000Y-100330000D03*
X129032000Y-102870000D03*
D15*
X154686000Y-107498000D03*
D16*
X154686000Y-110998000D03*
D17*
X144272000Y-110998000D03*
D18*
X146558000Y-104648000D03*
D17*
X148844000Y-110998000D03*
D19*
X134100000Y-116840000D03*
X132600000Y-116840000D03*
X135255000Y-104775000D03*
X133755000Y-104775000D03*
X134100000Y-120015000D03*
X132600000Y-120015000D03*
D13*
X106680000Y-120650000D03*
D14*
X106680000Y-118110000D03*
X106680000Y-115570000D03*
X106680000Y-113030000D03*
X106680000Y-110490000D03*
X106680000Y-107950000D03*
X106680000Y-105410000D03*
X106680000Y-102870000D03*
X106680000Y-100330000D03*
X106680000Y-97790000D03*
X106680000Y-95250000D03*
X106680000Y-92710000D03*
D20*
X129351000Y-107950000D03*
X129351000Y-109220000D03*
X129351000Y-110490000D03*
X129351000Y-111760000D03*
X134751000Y-111760000D03*
X134751000Y-110490000D03*
X134751000Y-109220000D03*
X134751000Y-107950000D03*
D21*
X132588000Y-101600000D03*
X132588000Y-100100000D03*
D22*
X127762000Y-111760000D03*
X129794000Y-118364000D03*
X131318000Y-116840000D03*
X154178000Y-100584000D03*
X155194000Y-99568000D03*
X154178000Y-98552000D03*
X154178000Y-99568000D03*
X154178000Y-103124000D03*
X141732000Y-111760000D03*
X140716000Y-112776000D03*
X140716000Y-110744000D03*
X140716000Y-111760000D03*
X140716000Y-107950000D03*
D23*
X129351000Y-111760000D02*
X127762000Y-111760000D01*
X129770000Y-116840000D02*
X129770000Y-118340000D01*
X129770000Y-118340000D02*
X129794000Y-118364000D01*
X132600000Y-116840000D02*
X131318000Y-116840000D01*
X154178000Y-99568000D02*
X154178000Y-100584000D01*
X154178000Y-99568000D02*
X155194000Y-99568000D01*
X154178000Y-99568000D02*
X154178000Y-98552000D01*
X152908000Y-99568000D02*
X154178000Y-99568000D01*
X152884000Y-103124000D02*
X154178000Y-103124000D01*
X140716000Y-111760000D02*
X141732000Y-111760000D01*
X140716000Y-111760000D02*
X140716000Y-112776000D01*
X140716000Y-111760000D02*
X140716000Y-110744000D01*
X139295000Y-111760000D02*
X140716000Y-111760000D01*
X139847400Y-107950000D02*
X140716000Y-107950000D01*
X139295000Y-107950000D02*
X139847400Y-107950000D01*
X132642799Y-114780399D02*
X130810000Y-114780399D01*
X130810000Y-114780399D02*
X130354601Y-114780399D01*
X130810000Y-110204000D02*
X130810000Y-114780399D01*
X129351000Y-109220000D02*
X129826000Y-109220000D01*
X129826000Y-109220000D02*
X130810000Y-110204000D01*
X132600000Y-120015000D02*
X132600000Y-117937600D01*
X132600000Y-117937600D02*
X133697600Y-116840000D01*
X133697600Y-116840000D02*
X134100000Y-116840000D01*
X134100000Y-116840000D02*
X134100000Y-116237600D01*
X134100000Y-116237600D02*
X132642799Y-114780399D01*
X128270000Y-116840000D02*
X128295000Y-116840000D01*
X128295000Y-116840000D02*
X130354601Y-114780399D01*
X129032000Y-102870000D02*
X128879600Y-102870000D01*
X128879600Y-102870000D02*
X122351810Y-109397790D01*
X122351810Y-109397790D02*
X121315192Y-109397790D01*
X121315192Y-109397790D02*
X120675390Y-110037592D01*
X120675390Y-110037592D02*
X120675390Y-111937790D01*
X120675390Y-111937790D02*
X121767600Y-113030000D01*
X121767600Y-113030000D02*
X121920000Y-113030000D01*
X121920000Y-110490000D02*
X123088400Y-110490000D01*
X123088400Y-110490000D02*
X129351000Y-110490000D01*
X129032000Y-97790000D02*
X130680400Y-97790000D01*
X130680400Y-97790000D02*
X132588000Y-99697600D01*
X132588000Y-99697600D02*
X132588000Y-100100000D01*
X121920000Y-92710000D02*
X123952000Y-92710000D01*
X123952000Y-92710000D02*
X129032000Y-97790000D01*
X133755000Y-104775000D02*
X132073600Y-104775000D01*
X132073600Y-104775000D02*
X129351000Y-107497600D01*
X129351000Y-107497600D02*
X129351000Y-107950000D01*
X132588000Y-101600000D02*
X129286000Y-101600000D01*
X129286000Y-101600000D02*
X129032000Y-101346000D01*
X129032000Y-101346000D02*
X129032000Y-100330000D01*
X133190400Y-112681600D02*
X133856301Y-113347501D01*
X133856301Y-113347501D02*
X142620999Y-113347501D01*
X142620999Y-113347501D02*
X144272000Y-111696500D01*
X144272000Y-111696500D02*
X144272000Y-110998000D01*
X133190400Y-107442000D02*
X133190400Y-112681600D01*
X135255000Y-104775000D02*
X135255000Y-105377400D01*
X135255000Y-105377400D02*
X133190400Y-107442000D01*
X137795000Y-107950000D02*
X137795000Y-101884480D01*
X137795000Y-101884480D02*
X140335000Y-99344480D01*
D24*
X151384000Y-103124000D02*
X151384000Y-99592000D01*
X151384000Y-99592000D02*
X151408000Y-99568000D01*
X146558000Y-104648000D02*
X149860000Y-104648000D01*
X149860000Y-104648000D02*
X151384000Y-103124000D01*
D25*
X140335000Y-99344480D02*
X141254480Y-99344480D01*
X141254480Y-99344480D02*
X146558000Y-104648000D01*
D23*
X134751000Y-107950000D02*
X135678400Y-107950000D01*
X135678400Y-107950000D02*
X137795000Y-107950000D01*
X137795000Y-111760000D02*
X137795000Y-107950000D01*
X134100000Y-120015000D02*
X140525500Y-120015000D01*
X140525500Y-120015000D02*
X148844000Y-111696500D01*
D24*
X148844000Y-111696500D02*
X148844000Y-110998000D01*
D25*
X148844000Y-110998000D02*
X154686000Y-110998000D01*
D26*
G36*
X157532000Y-123750000D02*
X104850000Y-123750000D01*
X104850000Y-92710000D01*
X104996655Y-92710000D01*
X105110729Y-93283489D01*
X105435585Y-93769670D01*
X105750366Y-93980000D01*
X105435585Y-94190330D01*
X105110729Y-94676511D01*
X104996655Y-95250000D01*
X105110729Y-95823489D01*
X105435585Y-96309670D01*
X105750366Y-96520000D01*
X105435585Y-96730330D01*
X105110729Y-97216511D01*
X104996655Y-97790000D01*
X105110729Y-98363489D01*
X105435585Y-98849670D01*
X105750366Y-99060000D01*
X105435585Y-99270330D01*
X105110729Y-99756511D01*
X104996655Y-100330000D01*
X105110729Y-100903489D01*
X105435585Y-101389670D01*
X105750366Y-101600000D01*
X105435585Y-101810330D01*
X105110729Y-102296511D01*
X104996655Y-102870000D01*
X105110729Y-103443489D01*
X105435585Y-103929670D01*
X105750366Y-104140000D01*
X105435585Y-104350330D01*
X105110729Y-104836511D01*
X104996655Y-105410000D01*
X105110729Y-105983489D01*
X105435585Y-106469670D01*
X105750366Y-106680000D01*
X105435585Y-106890330D01*
X105110729Y-107376511D01*
X104996655Y-107950000D01*
X105110729Y-108523489D01*
X105435585Y-109009670D01*
X105750366Y-109220000D01*
X105435585Y-109430330D01*
X105110729Y-109916511D01*
X104996655Y-110490000D01*
X105110729Y-111063489D01*
X105435585Y-111549670D01*
X105750366Y-111760000D01*
X105435585Y-111970330D01*
X105110729Y-112456511D01*
X104996655Y-113030000D01*
X105110729Y-113603489D01*
X105435585Y-114089670D01*
X105750366Y-114300000D01*
X105435585Y-114510330D01*
X105110729Y-114996511D01*
X104996655Y-115570000D01*
X105110729Y-116143489D01*
X105435585Y-116629670D01*
X105750366Y-116840000D01*
X105435585Y-117050330D01*
X105110729Y-117536511D01*
X104996655Y-118110000D01*
X105110729Y-118683489D01*
X105435585Y-119169670D01*
X105449913Y-119179243D01*
X105428683Y-119183238D01*
X105212559Y-119322310D01*
X105067569Y-119534510D01*
X105016560Y-119786400D01*
X105016560Y-121513600D01*
X105060838Y-121748917D01*
X105199910Y-121965041D01*
X105412110Y-122110031D01*
X105664000Y-122161040D01*
X107696000Y-122161040D01*
X107931317Y-122116762D01*
X108147441Y-121977690D01*
X108292431Y-121765490D01*
X108343440Y-121513600D01*
X108343440Y-119786400D01*
X108337213Y-119753305D01*
X112414674Y-119753305D01*
X112701043Y-120446372D01*
X113230839Y-120977093D01*
X113923405Y-121264672D01*
X114673305Y-121265326D01*
X115366372Y-120978957D01*
X115897093Y-120449161D01*
X116184672Y-119756595D01*
X116185326Y-119006695D01*
X115898957Y-118313628D01*
X115369161Y-117782907D01*
X114676595Y-117495328D01*
X113926695Y-117494674D01*
X113233628Y-117781043D01*
X112702907Y-118310839D01*
X112415328Y-119003405D01*
X112414674Y-119753305D01*
X108337213Y-119753305D01*
X108299162Y-119551083D01*
X108160090Y-119334959D01*
X107947890Y-119189969D01*
X107906561Y-119181600D01*
X107924415Y-119169670D01*
X108249271Y-118683489D01*
X108363345Y-118110000D01*
X108249271Y-117536511D01*
X107924415Y-117050330D01*
X107609634Y-116840000D01*
X107924415Y-116629670D01*
X108249271Y-116143489D01*
X108363345Y-115570000D01*
X108249271Y-114996511D01*
X107924415Y-114510330D01*
X107609634Y-114300000D01*
X107924415Y-114089670D01*
X108249271Y-113603489D01*
X108363345Y-113030000D01*
X108249271Y-112456511D01*
X107924415Y-111970330D01*
X107609634Y-111760000D01*
X107924415Y-111549670D01*
X108249271Y-111063489D01*
X108363345Y-110490000D01*
X108273356Y-110037592D01*
X119964190Y-110037592D01*
X119964190Y-111937790D01*
X120018327Y-112209955D01*
X120172496Y-112440684D01*
X120323784Y-112591972D01*
X120236655Y-113030000D01*
X120350729Y-113603489D01*
X120675585Y-114089670D01*
X120990366Y-114300000D01*
X120675585Y-114510330D01*
X120350729Y-114996511D01*
X120236655Y-115570000D01*
X120350729Y-116143489D01*
X120675585Y-116629670D01*
X120990366Y-116840000D01*
X120675585Y-117050330D01*
X120350729Y-117536511D01*
X120236655Y-118110000D01*
X120350729Y-118683489D01*
X120675585Y-119169670D01*
X120689913Y-119179243D01*
X120668683Y-119183238D01*
X120452559Y-119322310D01*
X120307569Y-119534510D01*
X120256560Y-119786400D01*
X120256560Y-121513600D01*
X120300838Y-121748917D01*
X120439910Y-121965041D01*
X120652110Y-122110031D01*
X120904000Y-122161040D01*
X122936000Y-122161040D01*
X123171317Y-122116762D01*
X123387441Y-121977690D01*
X123532431Y-121765490D01*
X123583440Y-121513600D01*
X123583440Y-119786400D01*
X123539162Y-119551083D01*
X123400090Y-119334959D01*
X123187890Y-119189969D01*
X123146561Y-119181600D01*
X123164415Y-119169670D01*
X123489271Y-118683489D01*
X123603345Y-118110000D01*
X123489271Y-117536511D01*
X123164415Y-117050330D01*
X122849634Y-116840000D01*
X123164415Y-116629670D01*
X123489271Y-116143489D01*
X123603345Y-115570000D01*
X123489271Y-114996511D01*
X123164415Y-114510330D01*
X122849634Y-114300000D01*
X123164415Y-114089670D01*
X123489271Y-113603489D01*
X123603345Y-113030000D01*
X123489271Y-112456511D01*
X123164415Y-111970330D01*
X122849634Y-111760000D01*
X123164415Y-111549670D01*
X123397255Y-111201200D01*
X126937608Y-111201200D01*
X126933460Y-111205341D01*
X126784270Y-111564630D01*
X126783931Y-111953663D01*
X126932493Y-112313212D01*
X127207341Y-112588540D01*
X127566630Y-112737730D01*
X127955663Y-112738069D01*
X128259720Y-112612436D01*
X128324110Y-112656431D01*
X128576000Y-112707440D01*
X130098800Y-112707440D01*
X130098800Y-114120081D01*
X130082437Y-114123336D01*
X129851707Y-114277504D01*
X128311652Y-115817560D01*
X127870000Y-115817560D01*
X127634683Y-115861838D01*
X127418559Y-116000910D01*
X127273569Y-116213110D01*
X127222560Y-116465000D01*
X127222560Y-117215000D01*
X127266838Y-117450317D01*
X127405910Y-117666441D01*
X127618110Y-117811431D01*
X127870000Y-117862440D01*
X128670000Y-117862440D01*
X128905317Y-117818162D01*
X129019978Y-117744380D01*
X129026245Y-117748662D01*
X128965460Y-117809341D01*
X128816270Y-118168630D01*
X128815931Y-118557663D01*
X128964493Y-118917212D01*
X129239341Y-119192540D01*
X129598630Y-119341730D01*
X129987663Y-119342069D01*
X130347212Y-119193507D01*
X130622540Y-118918659D01*
X130771730Y-118559370D01*
X130772069Y-118170337D01*
X130623507Y-117810788D01*
X130542651Y-117729790D01*
X130621441Y-117679090D01*
X130683380Y-117588439D01*
X130763341Y-117668540D01*
X131122630Y-117817730D01*
X131511663Y-117818069D01*
X131846257Y-117679818D01*
X131885910Y-117741441D01*
X131922804Y-117766650D01*
X131913897Y-117811431D01*
X131888800Y-117937600D01*
X131888800Y-119115193D01*
X131753569Y-119313110D01*
X131702560Y-119565000D01*
X131702560Y-120465000D01*
X131746838Y-120700317D01*
X131885910Y-120916441D01*
X132098110Y-121061431D01*
X132350000Y-121112440D01*
X132850000Y-121112440D01*
X133085317Y-121068162D01*
X133301441Y-120929090D01*
X133349134Y-120859289D01*
X133385910Y-120916441D01*
X133598110Y-121061431D01*
X133850000Y-121112440D01*
X134350000Y-121112440D01*
X134585317Y-121068162D01*
X134801441Y-120929090D01*
X134940070Y-120726200D01*
X140525500Y-120726200D01*
X140797665Y-120672063D01*
X141028394Y-120517894D01*
X141792983Y-119753305D01*
X150514674Y-119753305D01*
X150801043Y-120446372D01*
X151330839Y-120977093D01*
X152023405Y-121264672D01*
X152773305Y-121265326D01*
X153466372Y-120978957D01*
X153997093Y-120449161D01*
X154284672Y-119756595D01*
X154285326Y-119006695D01*
X153998957Y-118313628D01*
X153469161Y-117782907D01*
X152776595Y-117495328D01*
X152026695Y-117494674D01*
X151333628Y-117781043D01*
X150802907Y-118310839D01*
X150515328Y-119003405D01*
X150514674Y-119753305D01*
X141792983Y-119753305D01*
X148376849Y-113169440D01*
X149669500Y-113169440D01*
X149904817Y-113125162D01*
X150120941Y-112986090D01*
X150265931Y-112773890D01*
X150316940Y-112522000D01*
X150316940Y-112395000D01*
X152875628Y-112395000D01*
X152882838Y-112433317D01*
X153021910Y-112649441D01*
X153234110Y-112794431D01*
X153486000Y-112845440D01*
X155886000Y-112845440D01*
X156121317Y-112801162D01*
X156337441Y-112662090D01*
X156482431Y-112449890D01*
X156533440Y-112198000D01*
X156533440Y-109798000D01*
X156489162Y-109562683D01*
X156350090Y-109346559D01*
X156137890Y-109201569D01*
X155886000Y-109150560D01*
X155491712Y-109150560D01*
X155724086Y-109054545D01*
X156240730Y-108538801D01*
X156520681Y-107864605D01*
X156521318Y-107134597D01*
X156242545Y-106459914D01*
X155726801Y-105943270D01*
X155052605Y-105663319D01*
X154322597Y-105662682D01*
X153647914Y-105941455D01*
X153131270Y-106457199D01*
X152851319Y-107131395D01*
X152850682Y-107861403D01*
X153129455Y-108536086D01*
X153645199Y-109052730D01*
X153880799Y-109150560D01*
X153486000Y-109150560D01*
X153250683Y-109194838D01*
X153034559Y-109333910D01*
X152889569Y-109546110D01*
X152878453Y-109601000D01*
X150316940Y-109601000D01*
X150316940Y-109474000D01*
X150272662Y-109238683D01*
X150133590Y-109022559D01*
X149921390Y-108877569D01*
X149669500Y-108826560D01*
X148018500Y-108826560D01*
X147783183Y-108870838D01*
X147567059Y-109009910D01*
X147422069Y-109222110D01*
X147371060Y-109474000D01*
X147371060Y-112163651D01*
X140230912Y-119303800D01*
X134936507Y-119303800D01*
X134814090Y-119113559D01*
X134601890Y-118968569D01*
X134350000Y-118917560D01*
X133850000Y-118917560D01*
X133614683Y-118961838D01*
X133398559Y-119100910D01*
X133350866Y-119170711D01*
X133314090Y-119113559D01*
X133311200Y-119111584D01*
X133311200Y-118232188D01*
X133647047Y-117896341D01*
X133850000Y-117937440D01*
X134350000Y-117937440D01*
X134585317Y-117893162D01*
X134801441Y-117754090D01*
X134946431Y-117541890D01*
X134997440Y-117290000D01*
X134997440Y-116390000D01*
X134953162Y-116154683D01*
X134814090Y-115938559D01*
X134676110Y-115844282D01*
X134602894Y-115734705D01*
X133145693Y-114277505D01*
X132914964Y-114123336D01*
X132642799Y-114069199D01*
X131521200Y-114069199D01*
X131521200Y-110204000D01*
X131467063Y-109931836D01*
X131467063Y-109931835D01*
X131312894Y-109701106D01*
X130773440Y-109161652D01*
X130773440Y-108920000D01*
X130729162Y-108684683D01*
X130665322Y-108585472D01*
X130722431Y-108501890D01*
X130773440Y-108250000D01*
X130773440Y-107650000D01*
X130729162Y-107414683D01*
X130615829Y-107238559D01*
X132368188Y-105486200D01*
X132918493Y-105486200D01*
X133040910Y-105676441D01*
X133253110Y-105821431D01*
X133505000Y-105872440D01*
X133754171Y-105872440D01*
X132687506Y-106939106D01*
X132533337Y-107169835D01*
X132502849Y-107323110D01*
X132479200Y-107442000D01*
X132479200Y-112681600D01*
X132533337Y-112953765D01*
X132687506Y-113184494D01*
X133353406Y-113850395D01*
X133584136Y-114004564D01*
X133629291Y-114013546D01*
X133856301Y-114058701D01*
X142620999Y-114058701D01*
X142893164Y-114004564D01*
X143123893Y-113850395D01*
X143804848Y-113169440D01*
X145097500Y-113169440D01*
X145332817Y-113125162D01*
X145548941Y-112986090D01*
X145693931Y-112773890D01*
X145744940Y-112522000D01*
X145744940Y-109474000D01*
X145700662Y-109238683D01*
X145561590Y-109022559D01*
X145349390Y-108877569D01*
X145097500Y-108826560D01*
X143446500Y-108826560D01*
X143211183Y-108870838D01*
X142995059Y-109009910D01*
X142850069Y-109222110D01*
X142799060Y-109474000D01*
X142799060Y-112163652D01*
X142326411Y-112636301D01*
X142171961Y-112636301D01*
X142285212Y-112589507D01*
X142560540Y-112314659D01*
X142709730Y-111955370D01*
X142710069Y-111566337D01*
X142561507Y-111206788D01*
X142286659Y-110931460D01*
X141927370Y-110782270D01*
X141693867Y-110782067D01*
X141694069Y-110550337D01*
X141545507Y-110190788D01*
X141270659Y-109915460D01*
X140911370Y-109766270D01*
X140522337Y-109765931D01*
X140162788Y-109914493D01*
X139887460Y-110189341D01*
X139738270Y-110548630D01*
X139738098Y-110746288D01*
X139695000Y-110737560D01*
X138895000Y-110737560D01*
X138659683Y-110781838D01*
X138556354Y-110848329D01*
X138554698Y-110846673D01*
X138321309Y-110750000D01*
X138080750Y-110750000D01*
X137922000Y-110908750D01*
X137922000Y-111633000D01*
X137942000Y-111633000D01*
X137942000Y-111887000D01*
X137922000Y-111887000D01*
X137922000Y-111907000D01*
X137668000Y-111907000D01*
X137668000Y-111887000D01*
X136918750Y-111887000D01*
X136760000Y-112045750D01*
X136760000Y-112261310D01*
X136856673Y-112494699D01*
X136998276Y-112636301D01*
X135803060Y-112636301D01*
X135977441Y-112524090D01*
X136122431Y-112311890D01*
X136173440Y-112060000D01*
X136173440Y-111460000D01*
X136135561Y-111258690D01*
X136760000Y-111258690D01*
X136760000Y-111474250D01*
X136918750Y-111633000D01*
X137668000Y-111633000D01*
X137668000Y-110908750D01*
X137509250Y-110750000D01*
X137268691Y-110750000D01*
X137035302Y-110846673D01*
X136856673Y-111025301D01*
X136760000Y-111258690D01*
X136135561Y-111258690D01*
X136129162Y-111224683D01*
X136065322Y-111125472D01*
X136122431Y-111041890D01*
X136173440Y-110790000D01*
X136173440Y-110190000D01*
X136129162Y-109954683D01*
X136065322Y-109855472D01*
X136122431Y-109771890D01*
X136173440Y-109520000D01*
X136173440Y-108920000D01*
X136129162Y-108684683D01*
X136070822Y-108594020D01*
X136161000Y-108376310D01*
X136161000Y-108235750D01*
X136760000Y-108235750D01*
X136760000Y-108451310D01*
X136856673Y-108684699D01*
X137035302Y-108863327D01*
X137268691Y-108960000D01*
X137509250Y-108960000D01*
X137668000Y-108801250D01*
X137668000Y-108077000D01*
X136918750Y-108077000D01*
X136760000Y-108235750D01*
X136161000Y-108235750D01*
X136002250Y-108077000D01*
X134878000Y-108077000D01*
X134878000Y-108097000D01*
X134624000Y-108097000D01*
X134624000Y-108077000D01*
X134604000Y-108077000D01*
X134604000Y-107823000D01*
X134624000Y-107823000D01*
X134624000Y-107173750D01*
X134878000Y-107173750D01*
X134878000Y-107823000D01*
X136002250Y-107823000D01*
X136161000Y-107664250D01*
X136161000Y-107523690D01*
X136129934Y-107448690D01*
X136760000Y-107448690D01*
X136760000Y-107664250D01*
X136918750Y-107823000D01*
X137668000Y-107823000D01*
X137668000Y-107098750D01*
X137922000Y-107098750D01*
X137922000Y-107823000D01*
X137942000Y-107823000D01*
X137942000Y-108077000D01*
X137922000Y-108077000D01*
X137922000Y-108801250D01*
X138080750Y-108960000D01*
X138321309Y-108960000D01*
X138554698Y-108863327D01*
X138556068Y-108861957D01*
X138643110Y-108921431D01*
X138895000Y-108972440D01*
X139695000Y-108972440D01*
X139930317Y-108928162D01*
X140146441Y-108789090D01*
X140156775Y-108773966D01*
X140161341Y-108778540D01*
X140520630Y-108927730D01*
X140909663Y-108928069D01*
X141269212Y-108779507D01*
X141544540Y-108504659D01*
X141693730Y-108145370D01*
X141694069Y-107756337D01*
X141545507Y-107396788D01*
X141270659Y-107121460D01*
X140911370Y-106972270D01*
X140522337Y-106971931D01*
X140162788Y-107120493D01*
X140159335Y-107123940D01*
X140159090Y-107123559D01*
X139946890Y-106978569D01*
X139695000Y-106927560D01*
X138895000Y-106927560D01*
X138659683Y-106971838D01*
X138556354Y-107038329D01*
X138554698Y-107036673D01*
X138321309Y-106940000D01*
X138080750Y-106940000D01*
X137922000Y-107098750D01*
X137668000Y-107098750D01*
X137509250Y-106940000D01*
X137268691Y-106940000D01*
X137035302Y-107036673D01*
X136856673Y-107215301D01*
X136760000Y-107448690D01*
X136129934Y-107448690D01*
X136064327Y-107290301D01*
X135885698Y-107111673D01*
X135652309Y-107015000D01*
X135036750Y-107015000D01*
X134878000Y-107173750D01*
X134624000Y-107173750D01*
X134544219Y-107093969D01*
X135757894Y-105880295D01*
X135832259Y-105768999D01*
X135956441Y-105689090D01*
X136101431Y-105476890D01*
X136152440Y-105225000D01*
X136152440Y-104933750D01*
X142875000Y-104933750D01*
X142875000Y-107822310D01*
X142971673Y-108055699D01*
X143150302Y-108234327D01*
X143383691Y-108331000D01*
X146272250Y-108331000D01*
X146431000Y-108172250D01*
X146431000Y-104775000D01*
X146685000Y-104775000D01*
X146685000Y-108172250D01*
X146843750Y-108331000D01*
X149732309Y-108331000D01*
X149965698Y-108234327D01*
X150144327Y-108055699D01*
X150241000Y-107822310D01*
X150241000Y-104933750D01*
X150082250Y-104775000D01*
X146685000Y-104775000D01*
X146431000Y-104775000D01*
X143033750Y-104775000D01*
X142875000Y-104933750D01*
X136152440Y-104933750D01*
X136152440Y-104325000D01*
X136108162Y-104089683D01*
X135969090Y-103873559D01*
X135756890Y-103728569D01*
X135505000Y-103677560D01*
X135005000Y-103677560D01*
X134769683Y-103721838D01*
X134553559Y-103860910D01*
X134505866Y-103930711D01*
X134469090Y-103873559D01*
X134256890Y-103728569D01*
X134005000Y-103677560D01*
X133505000Y-103677560D01*
X133269683Y-103721838D01*
X133053559Y-103860910D01*
X132914930Y-104063800D01*
X132073600Y-104063800D01*
X131801435Y-104117937D01*
X131570706Y-104272106D01*
X128848106Y-106994706D01*
X128842858Y-107002560D01*
X128576000Y-107002560D01*
X128340683Y-107046838D01*
X128124559Y-107185910D01*
X127979569Y-107398110D01*
X127928560Y-107650000D01*
X127928560Y-108250000D01*
X127972838Y-108485317D01*
X128036678Y-108584528D01*
X127979569Y-108668110D01*
X127928560Y-108920000D01*
X127928560Y-109520000D01*
X127972838Y-109755317D01*
X127987949Y-109778800D01*
X123397255Y-109778800D01*
X123228760Y-109526628D01*
X128463184Y-104292204D01*
X128847255Y-104368600D01*
X129216745Y-104368600D01*
X129790234Y-104254526D01*
X130276415Y-103929670D01*
X130601271Y-103443489D01*
X130715345Y-102870000D01*
X130604193Y-102311200D01*
X131688193Y-102311200D01*
X131886110Y-102446431D01*
X132138000Y-102497440D01*
X133038000Y-102497440D01*
X133273317Y-102453162D01*
X133489441Y-102314090D01*
X133634431Y-102101890D01*
X133685440Y-101850000D01*
X133685440Y-101350000D01*
X133641162Y-101114683D01*
X133502090Y-100898559D01*
X133432289Y-100850866D01*
X133489441Y-100814090D01*
X133634431Y-100601890D01*
X133685440Y-100350000D01*
X133685440Y-99850000D01*
X133644088Y-99630230D01*
X137949940Y-99630230D01*
X137949940Y-101220849D01*
X138046613Y-101454238D01*
X138225241Y-101632867D01*
X138458630Y-101729540D01*
X140049250Y-101729540D01*
X140208000Y-101570790D01*
X140208000Y-99471480D01*
X140462000Y-99471480D01*
X140462000Y-101570790D01*
X140620750Y-101729540D01*
X142211370Y-101729540D01*
X142444759Y-101632867D01*
X142603935Y-101473690D01*
X142875000Y-101473690D01*
X142875000Y-104362250D01*
X143033750Y-104521000D01*
X146431000Y-104521000D01*
X146431000Y-101123750D01*
X146685000Y-101123750D01*
X146685000Y-104521000D01*
X150082250Y-104521000D01*
X150241000Y-104362250D01*
X150241000Y-103409750D01*
X150349000Y-103409750D01*
X150349000Y-103625310D01*
X150445673Y-103858699D01*
X150624302Y-104037327D01*
X150857691Y-104134000D01*
X151098250Y-104134000D01*
X151257000Y-103975250D01*
X151257000Y-103251000D01*
X150507750Y-103251000D01*
X150349000Y-103409750D01*
X150241000Y-103409750D01*
X150241000Y-102622690D01*
X150349000Y-102622690D01*
X150349000Y-102838250D01*
X150507750Y-102997000D01*
X151257000Y-102997000D01*
X151257000Y-102272750D01*
X151511000Y-102272750D01*
X151511000Y-102997000D01*
X151531000Y-102997000D01*
X151531000Y-103251000D01*
X151511000Y-103251000D01*
X151511000Y-103975250D01*
X151669750Y-104134000D01*
X151910309Y-104134000D01*
X152143698Y-104037327D01*
X152145068Y-104035957D01*
X152232110Y-104095431D01*
X152484000Y-104146440D01*
X153284000Y-104146440D01*
X153519317Y-104102162D01*
X153701440Y-103984969D01*
X153982630Y-104101730D01*
X154371663Y-104102069D01*
X154731212Y-103953507D01*
X155006540Y-103678659D01*
X155155730Y-103319370D01*
X155156069Y-102930337D01*
X155007507Y-102570788D01*
X154732659Y-102295460D01*
X154373370Y-102146270D01*
X153984337Y-102145931D01*
X153698829Y-102263900D01*
X153535890Y-102152569D01*
X153284000Y-102101560D01*
X152484000Y-102101560D01*
X152248683Y-102145838D01*
X152145354Y-102212329D01*
X152143698Y-102210673D01*
X151910309Y-102114000D01*
X151669750Y-102114000D01*
X151511000Y-102272750D01*
X151257000Y-102272750D01*
X151098250Y-102114000D01*
X150857691Y-102114000D01*
X150624302Y-102210673D01*
X150445673Y-102389301D01*
X150349000Y-102622690D01*
X150241000Y-102622690D01*
X150241000Y-101473690D01*
X150144327Y-101240301D01*
X149965698Y-101061673D01*
X149732309Y-100965000D01*
X146843750Y-100965000D01*
X146685000Y-101123750D01*
X146431000Y-101123750D01*
X146272250Y-100965000D01*
X143383691Y-100965000D01*
X143150302Y-101061673D01*
X142971673Y-101240301D01*
X142875000Y-101473690D01*
X142603935Y-101473690D01*
X142623387Y-101454238D01*
X142720060Y-101220849D01*
X142720060Y-99853750D01*
X150373000Y-99853750D01*
X150373000Y-100069310D01*
X150469673Y-100302699D01*
X150648302Y-100481327D01*
X150881691Y-100578000D01*
X151122250Y-100578000D01*
X151281000Y-100419250D01*
X151281000Y-99695000D01*
X150531750Y-99695000D01*
X150373000Y-99853750D01*
X142720060Y-99853750D01*
X142720060Y-99630230D01*
X142561310Y-99471480D01*
X140462000Y-99471480D01*
X140208000Y-99471480D01*
X138108690Y-99471480D01*
X137949940Y-99630230D01*
X133644088Y-99630230D01*
X133641162Y-99614683D01*
X133502090Y-99398559D01*
X133289890Y-99253569D01*
X133105240Y-99216176D01*
X133090894Y-99194706D01*
X131183294Y-97287106D01*
X130952565Y-97132937D01*
X130680400Y-97078800D01*
X130509255Y-97078800D01*
X130276415Y-96730330D01*
X129961634Y-96520000D01*
X130276415Y-96309670D01*
X130601271Y-95823489D01*
X130715345Y-95250000D01*
X130601271Y-94676511D01*
X130546594Y-94594680D01*
X133238500Y-94594680D01*
X133238500Y-98094800D01*
X133282778Y-98330117D01*
X133421850Y-98546241D01*
X133634050Y-98691231D01*
X133885940Y-98742240D01*
X137386060Y-98742240D01*
X137621377Y-98697962D01*
X137837501Y-98558890D01*
X137949940Y-98394330D01*
X137949940Y-99058730D01*
X138108690Y-99217480D01*
X140208000Y-99217480D01*
X140208000Y-97118170D01*
X140462000Y-97118170D01*
X140462000Y-99217480D01*
X142561310Y-99217480D01*
X142712100Y-99066690D01*
X150373000Y-99066690D01*
X150373000Y-99282250D01*
X150531750Y-99441000D01*
X151281000Y-99441000D01*
X151281000Y-98716750D01*
X151535000Y-98716750D01*
X151535000Y-99441000D01*
X151555000Y-99441000D01*
X151555000Y-99695000D01*
X151535000Y-99695000D01*
X151535000Y-100419250D01*
X151693750Y-100578000D01*
X151934309Y-100578000D01*
X152167698Y-100481327D01*
X152169068Y-100479957D01*
X152256110Y-100539431D01*
X152508000Y-100590440D01*
X153200094Y-100590440D01*
X153199931Y-100777663D01*
X153348493Y-101137212D01*
X153623341Y-101412540D01*
X153982630Y-101561730D01*
X154371663Y-101562069D01*
X154731212Y-101413507D01*
X155006540Y-101138659D01*
X155155730Y-100779370D01*
X155155933Y-100545867D01*
X155387663Y-100546069D01*
X155747212Y-100397507D01*
X156022540Y-100122659D01*
X156171730Y-99763370D01*
X156172069Y-99374337D01*
X156023507Y-99014788D01*
X155748659Y-98739460D01*
X155389370Y-98590270D01*
X155155867Y-98590067D01*
X155156069Y-98358337D01*
X155007507Y-97998788D01*
X154732659Y-97723460D01*
X154373370Y-97574270D01*
X153984337Y-97573931D01*
X153624788Y-97722493D01*
X153349460Y-97997341D01*
X153200270Y-98356630D01*
X153200105Y-98545560D01*
X152508000Y-98545560D01*
X152272683Y-98589838D01*
X152169354Y-98656329D01*
X152167698Y-98654673D01*
X151934309Y-98558000D01*
X151693750Y-98558000D01*
X151535000Y-98716750D01*
X151281000Y-98716750D01*
X151122250Y-98558000D01*
X150881691Y-98558000D01*
X150648302Y-98654673D01*
X150469673Y-98833301D01*
X150373000Y-99066690D01*
X142712100Y-99066690D01*
X142720060Y-99058730D01*
X142720060Y-97468111D01*
X142623387Y-97234722D01*
X142444759Y-97056093D01*
X142211370Y-96959420D01*
X140620750Y-96959420D01*
X140462000Y-97118170D01*
X140208000Y-97118170D01*
X140049250Y-96959420D01*
X138458630Y-96959420D01*
X138225241Y-97056093D01*
X138046613Y-97234722D01*
X138033500Y-97266380D01*
X138033500Y-95410755D01*
X138120850Y-95546501D01*
X138333050Y-95691491D01*
X138584940Y-95742500D01*
X142085060Y-95742500D01*
X142320377Y-95698222D01*
X142536501Y-95559150D01*
X142681491Y-95346950D01*
X142732500Y-95095060D01*
X142732500Y-94373109D01*
X150414657Y-94373109D01*
X150716218Y-95102943D01*
X151274120Y-95661819D01*
X152003427Y-95964654D01*
X152793109Y-95965343D01*
X153522943Y-95663782D01*
X154081819Y-95105880D01*
X154384654Y-94376573D01*
X154385343Y-93586891D01*
X154083782Y-92857057D01*
X153525880Y-92298181D01*
X152796573Y-91995346D01*
X152006891Y-91994657D01*
X151277057Y-92296218D01*
X150718181Y-92854120D01*
X150415346Y-93583427D01*
X150414657Y-94373109D01*
X142732500Y-94373109D01*
X142732500Y-91594940D01*
X142688222Y-91359623D01*
X142549150Y-91143499D01*
X142336950Y-90998509D01*
X142085060Y-90947500D01*
X138584940Y-90947500D01*
X138349623Y-90991778D01*
X138133499Y-91130850D01*
X137988509Y-91343050D01*
X137937500Y-91594940D01*
X137937500Y-94278985D01*
X137850150Y-94143239D01*
X137637950Y-93998249D01*
X137386060Y-93947240D01*
X133885940Y-93947240D01*
X133650623Y-93991518D01*
X133434499Y-94130590D01*
X133289509Y-94342790D01*
X133238500Y-94594680D01*
X130546594Y-94594680D01*
X130276415Y-94190330D01*
X130262087Y-94180757D01*
X130283317Y-94176762D01*
X130499441Y-94037690D01*
X130644431Y-93825490D01*
X130695440Y-93573600D01*
X130695440Y-91846400D01*
X130651162Y-91611083D01*
X130512090Y-91394959D01*
X130299890Y-91249969D01*
X130048000Y-91198960D01*
X128016000Y-91198960D01*
X127780683Y-91243238D01*
X127564559Y-91382310D01*
X127419569Y-91594510D01*
X127368560Y-91846400D01*
X127368560Y-93573600D01*
X127412838Y-93808917D01*
X127551910Y-94025041D01*
X127764110Y-94170031D01*
X127805439Y-94178400D01*
X127787585Y-94190330D01*
X127462729Y-94676511D01*
X127373398Y-95125610D01*
X124454894Y-92207106D01*
X124224165Y-92052937D01*
X123952000Y-91998800D01*
X123397255Y-91998800D01*
X123164415Y-91650330D01*
X122678234Y-91325474D01*
X122104745Y-91211400D01*
X121735255Y-91211400D01*
X121161766Y-91325474D01*
X120675585Y-91650330D01*
X120350729Y-92136511D01*
X120236655Y-92710000D01*
X120350729Y-93283489D01*
X120675585Y-93769670D01*
X120990366Y-93980000D01*
X120675585Y-94190330D01*
X120350729Y-94676511D01*
X120236655Y-95250000D01*
X120350729Y-95823489D01*
X120675585Y-96309670D01*
X120990366Y-96520000D01*
X120675585Y-96730330D01*
X120350729Y-97216511D01*
X120236655Y-97790000D01*
X120350729Y-98363489D01*
X120675585Y-98849670D01*
X120990366Y-99060000D01*
X120675585Y-99270330D01*
X120350729Y-99756511D01*
X120236655Y-100330000D01*
X120350729Y-100903489D01*
X120675585Y-101389670D01*
X120990366Y-101600000D01*
X120675585Y-101810330D01*
X120350729Y-102296511D01*
X120236655Y-102870000D01*
X120350729Y-103443489D01*
X120675585Y-103929670D01*
X120990366Y-104140000D01*
X120675585Y-104350330D01*
X120350729Y-104836511D01*
X120236655Y-105410000D01*
X120350729Y-105983489D01*
X120675585Y-106469670D01*
X120990366Y-106680000D01*
X120675585Y-106890330D01*
X120350729Y-107376511D01*
X120236655Y-107950000D01*
X120350729Y-108523489D01*
X120675585Y-109009670D01*
X120688736Y-109018457D01*
X120172496Y-109534698D01*
X120018327Y-109765427D01*
X120000510Y-109855000D01*
X119964190Y-110037592D01*
X108273356Y-110037592D01*
X108249271Y-109916511D01*
X107924415Y-109430330D01*
X107609634Y-109220000D01*
X107924415Y-109009670D01*
X108249271Y-108523489D01*
X108363345Y-107950000D01*
X108249271Y-107376511D01*
X107924415Y-106890330D01*
X107609634Y-106680000D01*
X107924415Y-106469670D01*
X108249271Y-105983489D01*
X108363345Y-105410000D01*
X108249271Y-104836511D01*
X107924415Y-104350330D01*
X107609634Y-104140000D01*
X107924415Y-103929670D01*
X108249271Y-103443489D01*
X108363345Y-102870000D01*
X108249271Y-102296511D01*
X107924415Y-101810330D01*
X107609634Y-101600000D01*
X107924415Y-101389670D01*
X108249271Y-100903489D01*
X108363345Y-100330000D01*
X108249271Y-99756511D01*
X107924415Y-99270330D01*
X107609634Y-99060000D01*
X107924415Y-98849670D01*
X108249271Y-98363489D01*
X108363345Y-97790000D01*
X108249271Y-97216511D01*
X107924415Y-96730330D01*
X107609634Y-96520000D01*
X107924415Y-96309670D01*
X108249271Y-95823489D01*
X108363345Y-95250000D01*
X108249271Y-94676511D01*
X108046545Y-94373109D01*
X112314657Y-94373109D01*
X112616218Y-95102943D01*
X113174120Y-95661819D01*
X113903427Y-95964654D01*
X114693109Y-95965343D01*
X115422943Y-95663782D01*
X115981819Y-95105880D01*
X116284654Y-94376573D01*
X116285343Y-93586891D01*
X115983782Y-92857057D01*
X115425880Y-92298181D01*
X114696573Y-91995346D01*
X113906891Y-91994657D01*
X113177057Y-92296218D01*
X112618181Y-92854120D01*
X112315346Y-93583427D01*
X112314657Y-94373109D01*
X108046545Y-94373109D01*
X107924415Y-94190330D01*
X107609634Y-93980000D01*
X107924415Y-93769670D01*
X108249271Y-93283489D01*
X108363345Y-92710000D01*
X108249271Y-92136511D01*
X107924415Y-91650330D01*
X107438234Y-91325474D01*
X106864745Y-91211400D01*
X106495255Y-91211400D01*
X105921766Y-91325474D01*
X105435585Y-91650330D01*
X105110729Y-92136511D01*
X104996655Y-92710000D01*
X104850000Y-92710000D01*
X104850000Y-89610000D01*
X157532000Y-89610000D01*
X157532000Y-123750000D01*
X157532000Y-123750000D01*
G37*
X157532000Y-123750000D02*
X104850000Y-123750000D01*
X104850000Y-92710000D01*
X104996655Y-92710000D01*
X105110729Y-93283489D01*
X105435585Y-93769670D01*
X105750366Y-93980000D01*
X105435585Y-94190330D01*
X105110729Y-94676511D01*
X104996655Y-95250000D01*
X105110729Y-95823489D01*
X105435585Y-96309670D01*
X105750366Y-96520000D01*
X105435585Y-96730330D01*
X105110729Y-97216511D01*
X104996655Y-97790000D01*
X105110729Y-98363489D01*
X105435585Y-98849670D01*
X105750366Y-99060000D01*
X105435585Y-99270330D01*
X105110729Y-99756511D01*
X104996655Y-100330000D01*
X105110729Y-100903489D01*
X105435585Y-101389670D01*
X105750366Y-101600000D01*
X105435585Y-101810330D01*
X105110729Y-102296511D01*
X104996655Y-102870000D01*
X105110729Y-103443489D01*
X105435585Y-103929670D01*
X105750366Y-104140000D01*
X105435585Y-104350330D01*
X105110729Y-104836511D01*
X104996655Y-105410000D01*
X105110729Y-105983489D01*
X105435585Y-106469670D01*
X105750366Y-106680000D01*
X105435585Y-106890330D01*
X105110729Y-107376511D01*
X104996655Y-107950000D01*
X105110729Y-108523489D01*
X105435585Y-109009670D01*
X105750366Y-109220000D01*
X105435585Y-109430330D01*
X105110729Y-109916511D01*
X104996655Y-110490000D01*
X105110729Y-111063489D01*
X105435585Y-111549670D01*
X105750366Y-111760000D01*
X105435585Y-111970330D01*
X105110729Y-112456511D01*
X104996655Y-113030000D01*
X105110729Y-113603489D01*
X105435585Y-114089670D01*
X105750366Y-114300000D01*
X105435585Y-114510330D01*
X105110729Y-114996511D01*
X104996655Y-115570000D01*
X105110729Y-116143489D01*
X105435585Y-116629670D01*
X105750366Y-116840000D01*
X105435585Y-117050330D01*
X105110729Y-117536511D01*
X104996655Y-118110000D01*
X105110729Y-118683489D01*
X105435585Y-119169670D01*
X105449913Y-119179243D01*
X105428683Y-119183238D01*
X105212559Y-119322310D01*
X105067569Y-119534510D01*
X105016560Y-119786400D01*
X105016560Y-121513600D01*
X105060838Y-121748917D01*
X105199910Y-121965041D01*
X105412110Y-122110031D01*
X105664000Y-122161040D01*
X107696000Y-122161040D01*
X107931317Y-122116762D01*
X108147441Y-121977690D01*
X108292431Y-121765490D01*
X108343440Y-121513600D01*
X108343440Y-119786400D01*
X108337213Y-119753305D01*
X112414674Y-119753305D01*
X112701043Y-120446372D01*
X113230839Y-120977093D01*
X113923405Y-121264672D01*
X114673305Y-121265326D01*
X115366372Y-120978957D01*
X115897093Y-120449161D01*
X116184672Y-119756595D01*
X116185326Y-119006695D01*
X115898957Y-118313628D01*
X115369161Y-117782907D01*
X114676595Y-117495328D01*
X113926695Y-117494674D01*
X113233628Y-117781043D01*
X112702907Y-118310839D01*
X112415328Y-119003405D01*
X112414674Y-119753305D01*
X108337213Y-119753305D01*
X108299162Y-119551083D01*
X108160090Y-119334959D01*
X107947890Y-119189969D01*
X107906561Y-119181600D01*
X107924415Y-119169670D01*
X108249271Y-118683489D01*
X108363345Y-118110000D01*
X108249271Y-117536511D01*
X107924415Y-117050330D01*
X107609634Y-116840000D01*
X107924415Y-116629670D01*
X108249271Y-116143489D01*
X108363345Y-115570000D01*
X108249271Y-114996511D01*
X107924415Y-114510330D01*
X107609634Y-114300000D01*
X107924415Y-114089670D01*
X108249271Y-113603489D01*
X108363345Y-113030000D01*
X108249271Y-112456511D01*
X107924415Y-111970330D01*
X107609634Y-111760000D01*
X107924415Y-111549670D01*
X108249271Y-111063489D01*
X108363345Y-110490000D01*
X108273356Y-110037592D01*
X119964190Y-110037592D01*
X119964190Y-111937790D01*
X120018327Y-112209955D01*
X120172496Y-112440684D01*
X120323784Y-112591972D01*
X120236655Y-113030000D01*
X120350729Y-113603489D01*
X120675585Y-114089670D01*
X120990366Y-114300000D01*
X120675585Y-114510330D01*
X120350729Y-114996511D01*
X120236655Y-115570000D01*
X120350729Y-116143489D01*
X120675585Y-116629670D01*
X120990366Y-116840000D01*
X120675585Y-117050330D01*
X120350729Y-117536511D01*
X120236655Y-118110000D01*
X120350729Y-118683489D01*
X120675585Y-119169670D01*
X120689913Y-119179243D01*
X120668683Y-119183238D01*
X120452559Y-119322310D01*
X120307569Y-119534510D01*
X120256560Y-119786400D01*
X120256560Y-121513600D01*
X120300838Y-121748917D01*
X120439910Y-121965041D01*
X120652110Y-122110031D01*
X120904000Y-122161040D01*
X122936000Y-122161040D01*
X123171317Y-122116762D01*
X123387441Y-121977690D01*
X123532431Y-121765490D01*
X123583440Y-121513600D01*
X123583440Y-119786400D01*
X123539162Y-119551083D01*
X123400090Y-119334959D01*
X123187890Y-119189969D01*
X123146561Y-119181600D01*
X123164415Y-119169670D01*
X123489271Y-118683489D01*
X123603345Y-118110000D01*
X123489271Y-117536511D01*
X123164415Y-117050330D01*
X122849634Y-116840000D01*
X123164415Y-116629670D01*
X123489271Y-116143489D01*
X123603345Y-115570000D01*
X123489271Y-114996511D01*
X123164415Y-114510330D01*
X122849634Y-114300000D01*
X123164415Y-114089670D01*
X123489271Y-113603489D01*
X123603345Y-113030000D01*
X123489271Y-112456511D01*
X123164415Y-111970330D01*
X122849634Y-111760000D01*
X123164415Y-111549670D01*
X123397255Y-111201200D01*
X126937608Y-111201200D01*
X126933460Y-111205341D01*
X126784270Y-111564630D01*
X126783931Y-111953663D01*
X126932493Y-112313212D01*
X127207341Y-112588540D01*
X127566630Y-112737730D01*
X127955663Y-112738069D01*
X128259720Y-112612436D01*
X128324110Y-112656431D01*
X128576000Y-112707440D01*
X130098800Y-112707440D01*
X130098800Y-114120081D01*
X130082437Y-114123336D01*
X129851707Y-114277504D01*
X128311652Y-115817560D01*
X127870000Y-115817560D01*
X127634683Y-115861838D01*
X127418559Y-116000910D01*
X127273569Y-116213110D01*
X127222560Y-116465000D01*
X127222560Y-117215000D01*
X127266838Y-117450317D01*
X127405910Y-117666441D01*
X127618110Y-117811431D01*
X127870000Y-117862440D01*
X128670000Y-117862440D01*
X128905317Y-117818162D01*
X129019978Y-117744380D01*
X129026245Y-117748662D01*
X128965460Y-117809341D01*
X128816270Y-118168630D01*
X128815931Y-118557663D01*
X128964493Y-118917212D01*
X129239341Y-119192540D01*
X129598630Y-119341730D01*
X129987663Y-119342069D01*
X130347212Y-119193507D01*
X130622540Y-118918659D01*
X130771730Y-118559370D01*
X130772069Y-118170337D01*
X130623507Y-117810788D01*
X130542651Y-117729790D01*
X130621441Y-117679090D01*
X130683380Y-117588439D01*
X130763341Y-117668540D01*
X131122630Y-117817730D01*
X131511663Y-117818069D01*
X131846257Y-117679818D01*
X131885910Y-117741441D01*
X131922804Y-117766650D01*
X131913897Y-117811431D01*
X131888800Y-117937600D01*
X131888800Y-119115193D01*
X131753569Y-119313110D01*
X131702560Y-119565000D01*
X131702560Y-120465000D01*
X131746838Y-120700317D01*
X131885910Y-120916441D01*
X132098110Y-121061431D01*
X132350000Y-121112440D01*
X132850000Y-121112440D01*
X133085317Y-121068162D01*
X133301441Y-120929090D01*
X133349134Y-120859289D01*
X133385910Y-120916441D01*
X133598110Y-121061431D01*
X133850000Y-121112440D01*
X134350000Y-121112440D01*
X134585317Y-121068162D01*
X134801441Y-120929090D01*
X134940070Y-120726200D01*
X140525500Y-120726200D01*
X140797665Y-120672063D01*
X141028394Y-120517894D01*
X141792983Y-119753305D01*
X150514674Y-119753305D01*
X150801043Y-120446372D01*
X151330839Y-120977093D01*
X152023405Y-121264672D01*
X152773305Y-121265326D01*
X153466372Y-120978957D01*
X153997093Y-120449161D01*
X154284672Y-119756595D01*
X154285326Y-119006695D01*
X153998957Y-118313628D01*
X153469161Y-117782907D01*
X152776595Y-117495328D01*
X152026695Y-117494674D01*
X151333628Y-117781043D01*
X150802907Y-118310839D01*
X150515328Y-119003405D01*
X150514674Y-119753305D01*
X141792983Y-119753305D01*
X148376849Y-113169440D01*
X149669500Y-113169440D01*
X149904817Y-113125162D01*
X150120941Y-112986090D01*
X150265931Y-112773890D01*
X150316940Y-112522000D01*
X150316940Y-112395000D01*
X152875628Y-112395000D01*
X152882838Y-112433317D01*
X153021910Y-112649441D01*
X153234110Y-112794431D01*
X153486000Y-112845440D01*
X155886000Y-112845440D01*
X156121317Y-112801162D01*
X156337441Y-112662090D01*
X156482431Y-112449890D01*
X156533440Y-112198000D01*
X156533440Y-109798000D01*
X156489162Y-109562683D01*
X156350090Y-109346559D01*
X156137890Y-109201569D01*
X155886000Y-109150560D01*
X155491712Y-109150560D01*
X155724086Y-109054545D01*
X156240730Y-108538801D01*
X156520681Y-107864605D01*
X156521318Y-107134597D01*
X156242545Y-106459914D01*
X155726801Y-105943270D01*
X155052605Y-105663319D01*
X154322597Y-105662682D01*
X153647914Y-105941455D01*
X153131270Y-106457199D01*
X152851319Y-107131395D01*
X152850682Y-107861403D01*
X153129455Y-108536086D01*
X153645199Y-109052730D01*
X153880799Y-109150560D01*
X153486000Y-109150560D01*
X153250683Y-109194838D01*
X153034559Y-109333910D01*
X152889569Y-109546110D01*
X152878453Y-109601000D01*
X150316940Y-109601000D01*
X150316940Y-109474000D01*
X150272662Y-109238683D01*
X150133590Y-109022559D01*
X149921390Y-108877569D01*
X149669500Y-108826560D01*
X148018500Y-108826560D01*
X147783183Y-108870838D01*
X147567059Y-109009910D01*
X147422069Y-109222110D01*
X147371060Y-109474000D01*
X147371060Y-112163651D01*
X140230912Y-119303800D01*
X134936507Y-119303800D01*
X134814090Y-119113559D01*
X134601890Y-118968569D01*
X134350000Y-118917560D01*
X133850000Y-118917560D01*
X133614683Y-118961838D01*
X133398559Y-119100910D01*
X133350866Y-119170711D01*
X133314090Y-119113559D01*
X133311200Y-119111584D01*
X133311200Y-118232188D01*
X133647047Y-117896341D01*
X133850000Y-117937440D01*
X134350000Y-117937440D01*
X134585317Y-117893162D01*
X134801441Y-117754090D01*
X134946431Y-117541890D01*
X134997440Y-117290000D01*
X134997440Y-116390000D01*
X134953162Y-116154683D01*
X134814090Y-115938559D01*
X134676110Y-115844282D01*
X134602894Y-115734705D01*
X133145693Y-114277505D01*
X132914964Y-114123336D01*
X132642799Y-114069199D01*
X131521200Y-114069199D01*
X131521200Y-110204000D01*
X131467063Y-109931836D01*
X131467063Y-109931835D01*
X131312894Y-109701106D01*
X130773440Y-109161652D01*
X130773440Y-108920000D01*
X130729162Y-108684683D01*
X130665322Y-108585472D01*
X130722431Y-108501890D01*
X130773440Y-108250000D01*
X130773440Y-107650000D01*
X130729162Y-107414683D01*
X130615829Y-107238559D01*
X132368188Y-105486200D01*
X132918493Y-105486200D01*
X133040910Y-105676441D01*
X133253110Y-105821431D01*
X133505000Y-105872440D01*
X133754171Y-105872440D01*
X132687506Y-106939106D01*
X132533337Y-107169835D01*
X132502849Y-107323110D01*
X132479200Y-107442000D01*
X132479200Y-112681600D01*
X132533337Y-112953765D01*
X132687506Y-113184494D01*
X133353406Y-113850395D01*
X133584136Y-114004564D01*
X133629291Y-114013546D01*
X133856301Y-114058701D01*
X142620999Y-114058701D01*
X142893164Y-114004564D01*
X143123893Y-113850395D01*
X143804848Y-113169440D01*
X145097500Y-113169440D01*
X145332817Y-113125162D01*
X145548941Y-112986090D01*
X145693931Y-112773890D01*
X145744940Y-112522000D01*
X145744940Y-109474000D01*
X145700662Y-109238683D01*
X145561590Y-109022559D01*
X145349390Y-108877569D01*
X145097500Y-108826560D01*
X143446500Y-108826560D01*
X143211183Y-108870838D01*
X142995059Y-109009910D01*
X142850069Y-109222110D01*
X142799060Y-109474000D01*
X142799060Y-112163652D01*
X142326411Y-112636301D01*
X142171961Y-112636301D01*
X142285212Y-112589507D01*
X142560540Y-112314659D01*
X142709730Y-111955370D01*
X142710069Y-111566337D01*
X142561507Y-111206788D01*
X142286659Y-110931460D01*
X141927370Y-110782270D01*
X141693867Y-110782067D01*
X141694069Y-110550337D01*
X141545507Y-110190788D01*
X141270659Y-109915460D01*
X140911370Y-109766270D01*
X140522337Y-109765931D01*
X140162788Y-109914493D01*
X139887460Y-110189341D01*
X139738270Y-110548630D01*
X139738098Y-110746288D01*
X139695000Y-110737560D01*
X138895000Y-110737560D01*
X138659683Y-110781838D01*
X138556354Y-110848329D01*
X138554698Y-110846673D01*
X138321309Y-110750000D01*
X138080750Y-110750000D01*
X137922000Y-110908750D01*
X137922000Y-111633000D01*
X137942000Y-111633000D01*
X137942000Y-111887000D01*
X137922000Y-111887000D01*
X137922000Y-111907000D01*
X137668000Y-111907000D01*
X137668000Y-111887000D01*
X136918750Y-111887000D01*
X136760000Y-112045750D01*
X136760000Y-112261310D01*
X136856673Y-112494699D01*
X136998276Y-112636301D01*
X135803060Y-112636301D01*
X135977441Y-112524090D01*
X136122431Y-112311890D01*
X136173440Y-112060000D01*
X136173440Y-111460000D01*
X136135561Y-111258690D01*
X136760000Y-111258690D01*
X136760000Y-111474250D01*
X136918750Y-111633000D01*
X137668000Y-111633000D01*
X137668000Y-110908750D01*
X137509250Y-110750000D01*
X137268691Y-110750000D01*
X137035302Y-110846673D01*
X136856673Y-111025301D01*
X136760000Y-111258690D01*
X136135561Y-111258690D01*
X136129162Y-111224683D01*
X136065322Y-111125472D01*
X136122431Y-111041890D01*
X136173440Y-110790000D01*
X136173440Y-110190000D01*
X136129162Y-109954683D01*
X136065322Y-109855472D01*
X136122431Y-109771890D01*
X136173440Y-109520000D01*
X136173440Y-108920000D01*
X136129162Y-108684683D01*
X136070822Y-108594020D01*
X136161000Y-108376310D01*
X136161000Y-108235750D01*
X136760000Y-108235750D01*
X136760000Y-108451310D01*
X136856673Y-108684699D01*
X137035302Y-108863327D01*
X137268691Y-108960000D01*
X137509250Y-108960000D01*
X137668000Y-108801250D01*
X137668000Y-108077000D01*
X136918750Y-108077000D01*
X136760000Y-108235750D01*
X136161000Y-108235750D01*
X136002250Y-108077000D01*
X134878000Y-108077000D01*
X134878000Y-108097000D01*
X134624000Y-108097000D01*
X134624000Y-108077000D01*
X134604000Y-108077000D01*
X134604000Y-107823000D01*
X134624000Y-107823000D01*
X134624000Y-107173750D01*
X134878000Y-107173750D01*
X134878000Y-107823000D01*
X136002250Y-107823000D01*
X136161000Y-107664250D01*
X136161000Y-107523690D01*
X136129934Y-107448690D01*
X136760000Y-107448690D01*
X136760000Y-107664250D01*
X136918750Y-107823000D01*
X137668000Y-107823000D01*
X137668000Y-107098750D01*
X137922000Y-107098750D01*
X137922000Y-107823000D01*
X137942000Y-107823000D01*
X137942000Y-108077000D01*
X137922000Y-108077000D01*
X137922000Y-108801250D01*
X138080750Y-108960000D01*
X138321309Y-108960000D01*
X138554698Y-108863327D01*
X138556068Y-108861957D01*
X138643110Y-108921431D01*
X138895000Y-108972440D01*
X139695000Y-108972440D01*
X139930317Y-108928162D01*
X140146441Y-108789090D01*
X140156775Y-108773966D01*
X140161341Y-108778540D01*
X140520630Y-108927730D01*
X140909663Y-108928069D01*
X141269212Y-108779507D01*
X141544540Y-108504659D01*
X141693730Y-108145370D01*
X141694069Y-107756337D01*
X141545507Y-107396788D01*
X141270659Y-107121460D01*
X140911370Y-106972270D01*
X140522337Y-106971931D01*
X140162788Y-107120493D01*
X140159335Y-107123940D01*
X140159090Y-107123559D01*
X139946890Y-106978569D01*
X139695000Y-106927560D01*
X138895000Y-106927560D01*
X138659683Y-106971838D01*
X138556354Y-107038329D01*
X138554698Y-107036673D01*
X138321309Y-106940000D01*
X138080750Y-106940000D01*
X137922000Y-107098750D01*
X137668000Y-107098750D01*
X137509250Y-106940000D01*
X137268691Y-106940000D01*
X137035302Y-107036673D01*
X136856673Y-107215301D01*
X136760000Y-107448690D01*
X136129934Y-107448690D01*
X136064327Y-107290301D01*
X135885698Y-107111673D01*
X135652309Y-107015000D01*
X135036750Y-107015000D01*
X134878000Y-107173750D01*
X134624000Y-107173750D01*
X134544219Y-107093969D01*
X135757894Y-105880295D01*
X135832259Y-105768999D01*
X135956441Y-105689090D01*
X136101431Y-105476890D01*
X136152440Y-105225000D01*
X136152440Y-104933750D01*
X142875000Y-104933750D01*
X142875000Y-107822310D01*
X142971673Y-108055699D01*
X143150302Y-108234327D01*
X143383691Y-108331000D01*
X146272250Y-108331000D01*
X146431000Y-108172250D01*
X146431000Y-104775000D01*
X146685000Y-104775000D01*
X146685000Y-108172250D01*
X146843750Y-108331000D01*
X149732309Y-108331000D01*
X149965698Y-108234327D01*
X150144327Y-108055699D01*
X150241000Y-107822310D01*
X150241000Y-104933750D01*
X150082250Y-104775000D01*
X146685000Y-104775000D01*
X146431000Y-104775000D01*
X143033750Y-104775000D01*
X142875000Y-104933750D01*
X136152440Y-104933750D01*
X136152440Y-104325000D01*
X136108162Y-104089683D01*
X135969090Y-103873559D01*
X135756890Y-103728569D01*
X135505000Y-103677560D01*
X135005000Y-103677560D01*
X134769683Y-103721838D01*
X134553559Y-103860910D01*
X134505866Y-103930711D01*
X134469090Y-103873559D01*
X134256890Y-103728569D01*
X134005000Y-103677560D01*
X133505000Y-103677560D01*
X133269683Y-103721838D01*
X133053559Y-103860910D01*
X132914930Y-104063800D01*
X132073600Y-104063800D01*
X131801435Y-104117937D01*
X131570706Y-104272106D01*
X128848106Y-106994706D01*
X128842858Y-107002560D01*
X128576000Y-107002560D01*
X128340683Y-107046838D01*
X128124559Y-107185910D01*
X127979569Y-107398110D01*
X127928560Y-107650000D01*
X127928560Y-108250000D01*
X127972838Y-108485317D01*
X128036678Y-108584528D01*
X127979569Y-108668110D01*
X127928560Y-108920000D01*
X127928560Y-109520000D01*
X127972838Y-109755317D01*
X127987949Y-109778800D01*
X123397255Y-109778800D01*
X123228760Y-109526628D01*
X128463184Y-104292204D01*
X128847255Y-104368600D01*
X129216745Y-104368600D01*
X129790234Y-104254526D01*
X130276415Y-103929670D01*
X130601271Y-103443489D01*
X130715345Y-102870000D01*
X130604193Y-102311200D01*
X131688193Y-102311200D01*
X131886110Y-102446431D01*
X132138000Y-102497440D01*
X133038000Y-102497440D01*
X133273317Y-102453162D01*
X133489441Y-102314090D01*
X133634431Y-102101890D01*
X133685440Y-101850000D01*
X133685440Y-101350000D01*
X133641162Y-101114683D01*
X133502090Y-100898559D01*
X133432289Y-100850866D01*
X133489441Y-100814090D01*
X133634431Y-100601890D01*
X133685440Y-100350000D01*
X133685440Y-99850000D01*
X133644088Y-99630230D01*
X137949940Y-99630230D01*
X137949940Y-101220849D01*
X138046613Y-101454238D01*
X138225241Y-101632867D01*
X138458630Y-101729540D01*
X140049250Y-101729540D01*
X140208000Y-101570790D01*
X140208000Y-99471480D01*
X140462000Y-99471480D01*
X140462000Y-101570790D01*
X140620750Y-101729540D01*
X142211370Y-101729540D01*
X142444759Y-101632867D01*
X142603935Y-101473690D01*
X142875000Y-101473690D01*
X142875000Y-104362250D01*
X143033750Y-104521000D01*
X146431000Y-104521000D01*
X146431000Y-101123750D01*
X146685000Y-101123750D01*
X146685000Y-104521000D01*
X150082250Y-104521000D01*
X150241000Y-104362250D01*
X150241000Y-103409750D01*
X150349000Y-103409750D01*
X150349000Y-103625310D01*
X150445673Y-103858699D01*
X150624302Y-104037327D01*
X150857691Y-104134000D01*
X151098250Y-104134000D01*
X151257000Y-103975250D01*
X151257000Y-103251000D01*
X150507750Y-103251000D01*
X150349000Y-103409750D01*
X150241000Y-103409750D01*
X150241000Y-102622690D01*
X150349000Y-102622690D01*
X150349000Y-102838250D01*
X150507750Y-102997000D01*
X151257000Y-102997000D01*
X151257000Y-102272750D01*
X151511000Y-102272750D01*
X151511000Y-102997000D01*
X151531000Y-102997000D01*
X151531000Y-103251000D01*
X151511000Y-103251000D01*
X151511000Y-103975250D01*
X151669750Y-104134000D01*
X151910309Y-104134000D01*
X152143698Y-104037327D01*
X152145068Y-104035957D01*
X152232110Y-104095431D01*
X152484000Y-104146440D01*
X153284000Y-104146440D01*
X153519317Y-104102162D01*
X153701440Y-103984969D01*
X153982630Y-104101730D01*
X154371663Y-104102069D01*
X154731212Y-103953507D01*
X155006540Y-103678659D01*
X155155730Y-103319370D01*
X155156069Y-102930337D01*
X155007507Y-102570788D01*
X154732659Y-102295460D01*
X154373370Y-102146270D01*
X153984337Y-102145931D01*
X153698829Y-102263900D01*
X153535890Y-102152569D01*
X153284000Y-102101560D01*
X152484000Y-102101560D01*
X152248683Y-102145838D01*
X152145354Y-102212329D01*
X152143698Y-102210673D01*
X151910309Y-102114000D01*
X151669750Y-102114000D01*
X151511000Y-102272750D01*
X151257000Y-102272750D01*
X151098250Y-102114000D01*
X150857691Y-102114000D01*
X150624302Y-102210673D01*
X150445673Y-102389301D01*
X150349000Y-102622690D01*
X150241000Y-102622690D01*
X150241000Y-101473690D01*
X150144327Y-101240301D01*
X149965698Y-101061673D01*
X149732309Y-100965000D01*
X146843750Y-100965000D01*
X146685000Y-101123750D01*
X146431000Y-101123750D01*
X146272250Y-100965000D01*
X143383691Y-100965000D01*
X143150302Y-101061673D01*
X142971673Y-101240301D01*
X142875000Y-101473690D01*
X142603935Y-101473690D01*
X142623387Y-101454238D01*
X142720060Y-101220849D01*
X142720060Y-99853750D01*
X150373000Y-99853750D01*
X150373000Y-100069310D01*
X150469673Y-100302699D01*
X150648302Y-100481327D01*
X150881691Y-100578000D01*
X151122250Y-100578000D01*
X151281000Y-100419250D01*
X151281000Y-99695000D01*
X150531750Y-99695000D01*
X150373000Y-99853750D01*
X142720060Y-99853750D01*
X142720060Y-99630230D01*
X142561310Y-99471480D01*
X140462000Y-99471480D01*
X140208000Y-99471480D01*
X138108690Y-99471480D01*
X137949940Y-99630230D01*
X133644088Y-99630230D01*
X133641162Y-99614683D01*
X133502090Y-99398559D01*
X133289890Y-99253569D01*
X133105240Y-99216176D01*
X133090894Y-99194706D01*
X131183294Y-97287106D01*
X130952565Y-97132937D01*
X130680400Y-97078800D01*
X130509255Y-97078800D01*
X130276415Y-96730330D01*
X129961634Y-96520000D01*
X130276415Y-96309670D01*
X130601271Y-95823489D01*
X130715345Y-95250000D01*
X130601271Y-94676511D01*
X130546594Y-94594680D01*
X133238500Y-94594680D01*
X133238500Y-98094800D01*
X133282778Y-98330117D01*
X133421850Y-98546241D01*
X133634050Y-98691231D01*
X133885940Y-98742240D01*
X137386060Y-98742240D01*
X137621377Y-98697962D01*
X137837501Y-98558890D01*
X137949940Y-98394330D01*
X137949940Y-99058730D01*
X138108690Y-99217480D01*
X140208000Y-99217480D01*
X140208000Y-97118170D01*
X140462000Y-97118170D01*
X140462000Y-99217480D01*
X142561310Y-99217480D01*
X142712100Y-99066690D01*
X150373000Y-99066690D01*
X150373000Y-99282250D01*
X150531750Y-99441000D01*
X151281000Y-99441000D01*
X151281000Y-98716750D01*
X151535000Y-98716750D01*
X151535000Y-99441000D01*
X151555000Y-99441000D01*
X151555000Y-99695000D01*
X151535000Y-99695000D01*
X151535000Y-100419250D01*
X151693750Y-100578000D01*
X151934309Y-100578000D01*
X152167698Y-100481327D01*
X152169068Y-100479957D01*
X152256110Y-100539431D01*
X152508000Y-100590440D01*
X153200094Y-100590440D01*
X153199931Y-100777663D01*
X153348493Y-101137212D01*
X153623341Y-101412540D01*
X153982630Y-101561730D01*
X154371663Y-101562069D01*
X154731212Y-101413507D01*
X155006540Y-101138659D01*
X155155730Y-100779370D01*
X155155933Y-100545867D01*
X155387663Y-100546069D01*
X155747212Y-100397507D01*
X156022540Y-100122659D01*
X156171730Y-99763370D01*
X156172069Y-99374337D01*
X156023507Y-99014788D01*
X155748659Y-98739460D01*
X155389370Y-98590270D01*
X155155867Y-98590067D01*
X155156069Y-98358337D01*
X155007507Y-97998788D01*
X154732659Y-97723460D01*
X154373370Y-97574270D01*
X153984337Y-97573931D01*
X153624788Y-97722493D01*
X153349460Y-97997341D01*
X153200270Y-98356630D01*
X153200105Y-98545560D01*
X152508000Y-98545560D01*
X152272683Y-98589838D01*
X152169354Y-98656329D01*
X152167698Y-98654673D01*
X151934309Y-98558000D01*
X151693750Y-98558000D01*
X151535000Y-98716750D01*
X151281000Y-98716750D01*
X151122250Y-98558000D01*
X150881691Y-98558000D01*
X150648302Y-98654673D01*
X150469673Y-98833301D01*
X150373000Y-99066690D01*
X142712100Y-99066690D01*
X142720060Y-99058730D01*
X142720060Y-97468111D01*
X142623387Y-97234722D01*
X142444759Y-97056093D01*
X142211370Y-96959420D01*
X140620750Y-96959420D01*
X140462000Y-97118170D01*
X140208000Y-97118170D01*
X140049250Y-96959420D01*
X138458630Y-96959420D01*
X138225241Y-97056093D01*
X138046613Y-97234722D01*
X138033500Y-97266380D01*
X138033500Y-95410755D01*
X138120850Y-95546501D01*
X138333050Y-95691491D01*
X138584940Y-95742500D01*
X142085060Y-95742500D01*
X142320377Y-95698222D01*
X142536501Y-95559150D01*
X142681491Y-95346950D01*
X142732500Y-95095060D01*
X142732500Y-94373109D01*
X150414657Y-94373109D01*
X150716218Y-95102943D01*
X151274120Y-95661819D01*
X152003427Y-95964654D01*
X152793109Y-95965343D01*
X153522943Y-95663782D01*
X154081819Y-95105880D01*
X154384654Y-94376573D01*
X154385343Y-93586891D01*
X154083782Y-92857057D01*
X153525880Y-92298181D01*
X152796573Y-91995346D01*
X152006891Y-91994657D01*
X151277057Y-92296218D01*
X150718181Y-92854120D01*
X150415346Y-93583427D01*
X150414657Y-94373109D01*
X142732500Y-94373109D01*
X142732500Y-91594940D01*
X142688222Y-91359623D01*
X142549150Y-91143499D01*
X142336950Y-90998509D01*
X142085060Y-90947500D01*
X138584940Y-90947500D01*
X138349623Y-90991778D01*
X138133499Y-91130850D01*
X137988509Y-91343050D01*
X137937500Y-91594940D01*
X137937500Y-94278985D01*
X137850150Y-94143239D01*
X137637950Y-93998249D01*
X137386060Y-93947240D01*
X133885940Y-93947240D01*
X133650623Y-93991518D01*
X133434499Y-94130590D01*
X133289509Y-94342790D01*
X133238500Y-94594680D01*
X130546594Y-94594680D01*
X130276415Y-94190330D01*
X130262087Y-94180757D01*
X130283317Y-94176762D01*
X130499441Y-94037690D01*
X130644431Y-93825490D01*
X130695440Y-93573600D01*
X130695440Y-91846400D01*
X130651162Y-91611083D01*
X130512090Y-91394959D01*
X130299890Y-91249969D01*
X130048000Y-91198960D01*
X128016000Y-91198960D01*
X127780683Y-91243238D01*
X127564559Y-91382310D01*
X127419569Y-91594510D01*
X127368560Y-91846400D01*
X127368560Y-93573600D01*
X127412838Y-93808917D01*
X127551910Y-94025041D01*
X127764110Y-94170031D01*
X127805439Y-94178400D01*
X127787585Y-94190330D01*
X127462729Y-94676511D01*
X127373398Y-95125610D01*
X124454894Y-92207106D01*
X124224165Y-92052937D01*
X123952000Y-91998800D01*
X123397255Y-91998800D01*
X123164415Y-91650330D01*
X122678234Y-91325474D01*
X122104745Y-91211400D01*
X121735255Y-91211400D01*
X121161766Y-91325474D01*
X120675585Y-91650330D01*
X120350729Y-92136511D01*
X120236655Y-92710000D01*
X120350729Y-93283489D01*
X120675585Y-93769670D01*
X120990366Y-93980000D01*
X120675585Y-94190330D01*
X120350729Y-94676511D01*
X120236655Y-95250000D01*
X120350729Y-95823489D01*
X120675585Y-96309670D01*
X120990366Y-96520000D01*
X120675585Y-96730330D01*
X120350729Y-97216511D01*
X120236655Y-97790000D01*
X120350729Y-98363489D01*
X120675585Y-98849670D01*
X120990366Y-99060000D01*
X120675585Y-99270330D01*
X120350729Y-99756511D01*
X120236655Y-100330000D01*
X120350729Y-100903489D01*
X120675585Y-101389670D01*
X120990366Y-101600000D01*
X120675585Y-101810330D01*
X120350729Y-102296511D01*
X120236655Y-102870000D01*
X120350729Y-103443489D01*
X120675585Y-103929670D01*
X120990366Y-104140000D01*
X120675585Y-104350330D01*
X120350729Y-104836511D01*
X120236655Y-105410000D01*
X120350729Y-105983489D01*
X120675585Y-106469670D01*
X120990366Y-106680000D01*
X120675585Y-106890330D01*
X120350729Y-107376511D01*
X120236655Y-107950000D01*
X120350729Y-108523489D01*
X120675585Y-109009670D01*
X120688736Y-109018457D01*
X120172496Y-109534698D01*
X120018327Y-109765427D01*
X120000510Y-109855000D01*
X119964190Y-110037592D01*
X108273356Y-110037592D01*
X108249271Y-109916511D01*
X107924415Y-109430330D01*
X107609634Y-109220000D01*
X107924415Y-109009670D01*
X108249271Y-108523489D01*
X108363345Y-107950000D01*
X108249271Y-107376511D01*
X107924415Y-106890330D01*
X107609634Y-106680000D01*
X107924415Y-106469670D01*
X108249271Y-105983489D01*
X108363345Y-105410000D01*
X108249271Y-104836511D01*
X107924415Y-104350330D01*
X107609634Y-104140000D01*
X107924415Y-103929670D01*
X108249271Y-103443489D01*
X108363345Y-102870000D01*
X108249271Y-102296511D01*
X107924415Y-101810330D01*
X107609634Y-101600000D01*
X107924415Y-101389670D01*
X108249271Y-100903489D01*
X108363345Y-100330000D01*
X108249271Y-99756511D01*
X107924415Y-99270330D01*
X107609634Y-99060000D01*
X107924415Y-98849670D01*
X108249271Y-98363489D01*
X108363345Y-97790000D01*
X108249271Y-97216511D01*
X107924415Y-96730330D01*
X107609634Y-96520000D01*
X107924415Y-96309670D01*
X108249271Y-95823489D01*
X108363345Y-95250000D01*
X108249271Y-94676511D01*
X108046545Y-94373109D01*
X112314657Y-94373109D01*
X112616218Y-95102943D01*
X113174120Y-95661819D01*
X113903427Y-95964654D01*
X114693109Y-95965343D01*
X115422943Y-95663782D01*
X115981819Y-95105880D01*
X116284654Y-94376573D01*
X116285343Y-93586891D01*
X115983782Y-92857057D01*
X115425880Y-92298181D01*
X114696573Y-91995346D01*
X113906891Y-91994657D01*
X113177057Y-92296218D01*
X112618181Y-92854120D01*
X112315346Y-93583427D01*
X112314657Y-94373109D01*
X108046545Y-94373109D01*
X107924415Y-94190330D01*
X107609634Y-93980000D01*
X107924415Y-93769670D01*
X108249271Y-93283489D01*
X108363345Y-92710000D01*
X108249271Y-92136511D01*
X107924415Y-91650330D01*
X107438234Y-91325474D01*
X106864745Y-91211400D01*
X106495255Y-91211400D01*
X105921766Y-91325474D01*
X105435585Y-91650330D01*
X105110729Y-92136511D01*
X104996655Y-92710000D01*
X104850000Y-92710000D01*
X104850000Y-89610000D01*
X157532000Y-89610000D01*
X157532000Y-123750000D01*
M02*
